<svg xmlns="http://www.w3.org/2000/svg" width="235.566" height="212.132" viewBox="0 0 235.566 212.132"><path d="M189.026 164.442h16.967v26.967H23.124v-26.967h34.527a50.345 50.345 0 01-10.017-10.062 14.821 14.821 0 11-9.761-26.036 50.12 50.12 0 01-.165-3.893 49.881 49.881 0 0112.845-33.479A28.922 28.922 0 1198.686 58.9a42.275 42.275 0 0148.959-25.177c-.035-.463-.07-.925-.07-1.4a18.23 18.23 0 1124.162 17.224 42.379 42.379 0 017.092 35.821 27.219 27.219 0 0112.7 48.391 42.834 42.834 0 01-2.506 30.678zm10.809-141.594a11.424 11.424 0 10-11.424-11.424 11.424 11.424 0 0011.424 11.424zM30.993 94.409a11.42 11.42 0 00-18.627-12.062 7.78 7.78 0 10-2.219 13.685 11.411 11.411 0 0020.848-1.623zm175.4-34.128a5.833 5.833 0 105.833-5.834 5.834 5.834 0 00-5.828 5.834zm4.861 74.865a10.695 10.695 0 1010.7 10.7 10.7 10.7 0 00-10.695-10.7zm18.473 11.668a5.834 5.834 0 105.839 5.833 5.833 5.833 0 00-5.834-5.833zM75.946 91.08q-6.291 7.3-6.291 21.387t6.291 21.387q5.953 6.963 16.355 6.962 10.316 0 16.187-6.962 6.373-7.464 6.374-21.387t-6.374-21.387a18.148 18.148 0 00-7.087-5.242 23.785 23.785 0 00-9.184-1.719q-10.317 0-16.271 6.961zm28.684 21.387q0 9.395-3.229 14.3a10.97 10.97 0 01-18.284 0q-3.229-4.906-3.229-14.3t3.229-14.384a10.869 10.869 0 0118.284 0q3.228 4.992 3.229 14.384zm23.064 27.933a7.173 7.173 0 005.033-1.845 6.091 6.091 0 002.012-4.7 6.359 6.359 0 00-2.012-4.78 6.989 6.989 0 00-5.033-1.929 6.7 6.7 0 00-4.948 1.929 6.491 6.491 0 00-1.93 4.78 6.213 6.213 0 001.93 4.7 6.868 6.868 0 004.948 1.845zm12.664-41.6a19.445 19.445 0 008.64-2.1v42.943h9.9v-54.77h-7.464a24.265 24.265 0 01-11.072 4.445zM28.482 184.6h8.115v-1.447h-6.458v-4.493h6.08v-1.4h-6.08v-4.424h6.458V171.4h-8.115zm13.859-13.2v13.189h1.678v-10.731l6.647 10.736h1.845V171.4h-1.656v10.589L44.313 171.4zm16.481 13.189h8.115v-1.447h-6.458v-4.482h6.08v-1.4h-6.08v-4.424h6.458V171.4h-8.115zm21.9-12.119a4.918 4.918 0 00-3.407-1.07h-4.592v13.189h1.656v-5.388h2.307l3.418 5.388h2.138l-3.774-5.472a4.211 4.211 0 002.569-1.3 3.9 3.9 0 00.87-2.642 3.485 3.485 0 00-1.184-2.7zm-6.343 5.577v-5.221h2.936a3.012 3.012 0 012.149.7 2.472 2.472 0 01.745 1.887 2.505 2.505 0 01-.766 1.908 3.167 3.167 0 01-2.254.723zm21.66 6.542h1.342v-6.521h-4.928v1.091l3.313.126v.041a4.268 4.268 0 01-.922 2.978 3.148 3.148 0 01-2.433 1.006 3.483 3.483 0 01-2.935-1.447 6.2 6.2 0 01-1.091-3.826 5.759 5.759 0 011.269-3.869 3.921 3.921 0 013.093-1.488 4 4 0 013.187 1.7l1.593-.545a5.356 5.356 0 00-2-2.013 5.617 5.617 0 00-2.715-.629 5.868 5.868 0 00-4.414 1.845 6.871 6.871 0 00-1.772 4.969 7.249 7.249 0 001.625 4.969 5.294 5.294 0 004.162 1.846 3.366 3.366 0 003.418-2.495zm5.347-13.189l4.676 7.78v5.409h1.677v-5.409l4.739-7.78h-1.95l-3.628 6.06-3.543-6.06zm31.242 3.208a3.62 3.62 0 00-1.289-2.505 4.947 4.947 0 00-3.24-.933 5.012 5.012 0 00-3.292.975 3.036 3.036 0 00-1.174 2.432 2.823 2.823 0 00.839 2.212 7.007 7.007 0 002.474 1.3l2.328.86a3.946 3.946 0 011.52.838 1.838 1.838 0 01.513 1.374 1.865 1.865 0 01-.839 1.51 3.665 3.665 0 01-2.275.639 3.781 3.781 0 01-2.348-.692 2.349 2.349 0 01-.912-1.992h-1.615a3.826 3.826 0 001.437 3.093 5.593 5.593 0 003.575 1.1 5.425 5.425 0 003.481-1.038 3.159 3.159 0 001.3-2.558 3.209 3.209 0 00-.828-2.359 5.671 5.671 0 00-2.233-1.321l-2.747-.944a3.717 3.717 0 01-1.425-.733 1.616 1.616 0 01-.441-1.227 1.731 1.731 0 01.713-1.384 3.163 3.163 0 012.034-.576q2.473 0 2.831 1.928zm4.571 9.981h1.741l1.132-3.355h5.242l1.132 3.355h1.72l-4.425-13.189h-2.013zm5.514-11.155l2.181 6.5h-4.382zm7.885-2.034l4.655 13.189h1.719l4.676-13.189h-1.741l-3.8 11.093-3.769-11.093zm15.641 13.189h1.657V171.4h-1.657zm7.927-13.189v13.189h1.677v-10.731l6.647 10.736h1.845V171.4h-1.656v10.589l-6.542-10.589zm24.867 13.189h1.343v-6.521h-4.928v1.091l3.313.126v.041a4.268 4.268 0 01-.923 2.978 3.146 3.146 0 01-2.432 1.006 3.487 3.487 0 01-2.936-1.447 6.2 6.2 0 01-1.09-3.826 5.759 5.759 0 011.269-3.869 3.917 3.917 0 013.092-1.488 4 4 0 013.188 1.7l1.593-.545a5.363 5.363 0 00-2-2.013 5.621 5.621 0 00-2.716-.629 5.868 5.868 0 00-4.413 1.845 6.871 6.871 0 00-1.772 4.969 7.244 7.244 0 001.625 4.969 5.293 5.293 0 004.162 1.846 3.367 3.367 0 003.418-2.495zm-169.861 15.15a7.691 7.691 0 00-1.658 5.249 7.921 7.921 0 001.616 5.249 5.343 5.343 0 004.305 1.89 5.953 5.953 0 004-1.249 4.4 4.4 0 001.46-3.538h-2.667a2.4 2.4 0 01-.735 1.816 3.045 3.045 0 01-2.183.7 2.6 2.6 0 01-2.289-1.291 6.548 6.548 0 01-.84-3.59 6.03 6.03 0 01.945-3.6 2.74 2.74 0 012.31-1.2 2.462 2.462 0 011.753.662 3.948 3.948 0 011.039 1.732l2.646-.483a5.018 5.018 0 00-1.722-3 4.968 4.968 0 00-1.6-.85 6.993 6.993 0 00-2.183-.305 5.338 5.338 0 00-4.197 1.813zm15.474-.063a9.087 9.087 0 000 10.645 5.708 5.708 0 004.451 1.806 5.8 5.8 0 004.469-1.759 7.668 7.668 0 001.722-5.354 7.478 7.478 0 00-1.722-5.291 5.3 5.3 0 00-1.952-1.333 6.7 6.7 0 00-2.5-.452 5.8 5.8 0 00-4.468 1.743zm7.107 8.955a3.415 3.415 0 01-5.28 0 5.682 5.682 0 01-.987-3.59 5.771 5.771 0 01.987-3.611 3.377 3.377 0 015.28 0 5.816 5.816 0 01.977 3.611 5.726 5.726 0 01-.977 3.595zm8.535-10.425v13.627h2.478v-9.994l6.194 9.994h2.519v-13.622h-2.477v9.659l-6.005-9.659zm15.369 2.142h4.221v11.485h2.477v-11.48h4.22v-2.142H75.657zm12.661 11.485h2.624l.966-2.94h5.06l.945 2.94h2.625l-4.472-13.622h-3.108zm6.152-10.666l1.889 5.858h-3.821zm11.337-1.491a9.091 9.091 0 000 10.645 5.708 5.708 0 004.451 1.806 5.805 5.805 0 004.473-1.764 7.672 7.672 0 001.721-5.354 7.482 7.482 0 00-1.721-5.291 5.31 5.31 0 00-1.953-1.333 6.7 6.7 0 00-2.5-.452 5.8 5.8 0 00-4.471 1.748zm7.107 8.955a3.415 3.415 0 01-5.28 0 5.682 5.682 0 01-.987-3.59 5.771 5.771 0 01.987-3.611 3.377 3.377 0 015.28 0 5.816 5.816 0 01.977 3.611 5.726 5.726 0 01-.977 3.595zm14.162-8.283h4.22v11.485h2.478v-11.48h4.22v-2.142h-10.918zm15.1-2.142v13.627h2.478v-5.774h5.942v5.774h2.47v-13.622h-2.477v5.69h-5.942v-5.69zm16.9 13.627h8.777v-2.163h-6.3v-3.59h5.9v-2.142h-5.9v-3.59h6.3v-2.142h-8.777zm14.425-13.627v13.627h2.477v-10.64l3.989 9.154h1.617l3.863-8.86v10.351h2.5v-13.627h-3.422l-3.738 8.105-3.737-8.105zm20.428 13.627h8.777v-2.163h-6.3v-3.59h5.9v-2.142h-5.9v-3.59h6.3v-2.142h-8.777z"/></svg>