<svg xmlns="http://www.w3.org/2000/svg" width="174.344" height="157"><path d="M139.899 121.7h12.557v19.958H17.114V121.7h25.552a37.261 37.261 0 01-7.414-7.447 10.969 10.969 0 11-7.224-19.269 37.601 37.601 0 01-.122-2.881 36.917 36.917 0 019.507-24.778 21.405 21.405 0 1135.623-23.736 31.288 31.288 0 0136.235-18.634c-.026-.343-.052-.685-.052-1.033a13.492 13.492 0 1117.882 12.748 31.365 31.365 0 015.249 26.511 20.145 20.145 0 019.4 35.814 31.7 31.7 0 01-1.855 22.7zm8-104.794a8.455 8.455 0 10-8.455-8.455 8.455 8.455 0 008.455 8.459zM22.938 69.873a8.452 8.452 0 00-13.787-8.927 5.758 5.758 0 10-1.642 10.128 8.445 8.445 0 0015.43-1.2zm129.818-25.259a4.317 4.317 0 104.317-4.318 4.318 4.318 0 00-4.317 4.318zm3.6 55.408a7.915 7.915 0 107.915 7.915 7.916 7.916 0 00-7.917-7.915zm13.672 8.636a4.317 4.317 0 104.318 4.317 4.317 4.317 0 00-4.32-4.317zM56.208 67.409q-4.656 5.4-4.656 15.829t4.656 15.829q4.406 5.153 12.1 5.153 7.635 0 11.98-5.153 4.717-5.524 4.717-15.829t-4.717-15.829a13.432 13.432 0 00-5.245-3.88 17.6 17.6 0 00-6.8-1.272q-7.628 0-12.035 5.152zm21.229 15.829q0 6.953-2.39 10.584a8.119 8.119 0 01-13.532 0q-2.39-3.631-2.39-10.584t2.39-10.646a8.044 8.044 0 0113.532 0q2.389 3.694 2.39 10.645zm17.07 20.67a5.308 5.308 0 003.725-1.365 4.508 4.508 0 001.489-3.476 4.707 4.707 0 00-1.489-3.538 5.173 5.173 0 00-3.725-1.428 4.956 4.956 0 00-3.662 1.428 4.8 4.8 0 00-1.428 3.538 4.6 4.6 0 001.428 3.476 5.083 5.083 0 003.662 1.365zm9.373-30.788a14.391 14.391 0 006.395-1.552v31.782h7.324V62.815h-5.524a17.959 17.959 0 01-8.194 3.29zm-82.8 63.5h6.006v-1.071h-4.78v-3.321h4.5v-1.04h-4.5v-3.274h4.78v-1.055H21.08zm10.257-9.761v9.761h1.242v-7.946l4.919 7.946h1.368v-9.761H37.64v7.837l-4.842-7.837zm12.2 9.761h6.006v-1.071h-4.78v-3.321h4.5v-1.04h-4.5v-3.274h4.78v-1.055h-6.006zm16.209-8.969a3.64 3.64 0 00-2.522-.792h-3.4v9.761h1.226v-3.988h1.707l2.53 3.988h1.579l-2.793-4.05a3.117 3.117 0 001.9-.962 2.89 2.89 0 00.644-1.955 2.58 2.58 0 00-.873-2.003zm-4.695 4.128v-3.864h2.173a2.229 2.229 0 011.59.52 1.829 1.829 0 01.551 1.4 1.854 1.854 0 01-.567 1.412 2.344 2.344 0 01-1.668.535zm16.031 4.842h.993v-4.826h-3.649v.807l2.452.093v.03a3.159 3.159 0 01-.682 2.2 2.33 2.33 0 01-1.8.745 2.578 2.578 0 01-2.172-1.071 4.586 4.586 0 01-.807-2.832 4.263 4.263 0 01.939-2.863 2.9 2.9 0 012.289-1.1 2.963 2.963 0 012.359 1.257l1.179-.4a3.964 3.964 0 00-1.482-1.49 4.157 4.157 0 00-2.009-.466 4.343 4.343 0 00-3.267 1.365 5.085 5.085 0 00-1.311 3.678 5.365 5.365 0 001.2 3.678 3.918 3.918 0 003.08 1.366 2.491 2.491 0 002.53-1.847zm3.957-9.761l3.461 5.758v4h1.241v-4l3.507-5.758h-1.443l-2.685 4.485-2.622-4.485zm23.122 2.374a2.679 2.679 0 00-.954-1.854 3.661 3.661 0 00-2.4-.691 3.71 3.71 0 00-2.436.722 2.247 2.247 0 00-.869 1.8 2.089 2.089 0 00.621 1.637 5.186 5.186 0 001.831.962l1.723.636a2.92 2.92 0 011.125.62 1.36 1.36 0 01.38 1.017 1.381 1.381 0 01-.621 1.118 2.713 2.713 0 01-1.684.473 2.8 2.8 0 01-1.738-.512 1.738 1.738 0 01-.675-1.474h-1.2a2.831 2.831 0 001.064 2.289 4.139 4.139 0 002.646.815 4.015 4.015 0 002.576-.768 2.338 2.338 0 00.961-1.893 2.375 2.375 0 00-.613-1.746 4.2 4.2 0 00-1.653-.978l-2.033-.7a2.751 2.751 0 01-1.055-.542 1.2 1.2 0 01-.326-.908 1.281 1.281 0 01.528-1.024 2.341 2.341 0 011.505-.426q1.831 0 2.1 1.427zm3.383 7.387h1.289l.838-2.483h3.88l.838 2.483h1.272l-3.274-9.761h-1.49zm4.081-8.256l1.614 4.811h-3.243zm5.836-1.505l3.445 9.761h1.272l3.461-9.761h-1.289l-2.809 8.21-2.793-8.21zm11.576 9.761h1.226v-9.761h-1.226zm5.867-9.761v9.761h1.241v-7.946l4.919 7.946h1.365v-9.761h-1.226v7.837l-4.842-7.837zm18.4 9.761h.994v-4.826h-3.647v.807l2.452.093v.03a3.159 3.159 0 01-.683 2.2 2.328 2.328 0 01-1.8.745 2.58 2.58 0 01-2.173-1.071 4.586 4.586 0 01-.807-2.832 4.262 4.262 0 01.939-2.863 2.9 2.9 0 012.288-1.1 2.963 2.963 0 012.359 1.257l1.179-.4a3.969 3.969 0 00-1.482-1.49 4.161 4.161 0 00-2.01-.466 4.343 4.343 0 00-3.266 1.365 5.085 5.085 0 00-1.311 3.678 5.361 5.361 0 001.2 3.678 3.917 3.917 0 003.08 1.366 2.492 2.492 0 002.53-1.847zM21.59 147.832a5.692 5.692 0 00-1.227 3.885 5.862 5.862 0 001.2 3.885 3.955 3.955 0 003.186 1.4 4.406 4.406 0 002.96-.924 3.259 3.259 0 001.081-2.618h-1.974a1.777 1.777 0 01-.544 1.344 2.253 2.253 0 01-1.616.52 1.926 1.926 0 01-1.694-.955 4.846 4.846 0 01-.622-2.657 4.463 4.463 0 01.7-2.665 2.028 2.028 0 011.71-.886 1.822 1.822 0 011.3.49 2.922 2.922 0 01.769 1.282l1.958-.357a3.714 3.714 0 00-1.274-2.223 3.677 3.677 0 00-1.181-.629 5.175 5.175 0 00-1.616-.226 3.95 3.95 0 00-3.116 1.334zm11.452-.047a6.725 6.725 0 000 7.878A4.225 4.225 0 0036.337 157a4.294 4.294 0 003.31-1.306 5.675 5.675 0 001.274-3.963 5.535 5.535 0 00-1.274-3.916 3.921 3.921 0 00-1.445-.987 4.957 4.957 0 00-1.85-.335 4.294 4.294 0 00-3.309 1.292zm5.26 6.628a2.527 2.527 0 01-3.908 0 4.205 4.205 0 01-.73-2.657 4.271 4.271 0 01.73-2.673 2.5 2.5 0 013.908 0 4.3 4.3 0 01.723 2.673 4.238 4.238 0 01-.722 2.657zm6.317-7.716v10.085h1.834v-7.4l4.584 7.4h1.864V146.7h-1.835v7.149l-4.444-7.149zm11.375 1.585h3.124v8.5h1.833v-8.5h3.123V146.7h-8.08zm9.37 8.5h1.942l.715-2.176h3.745l.7 2.176h1.943l-3.31-10.085h-2.3zm4.553-7.894l1.4 4.336h-2.828zm8.391-1.1a6.728 6.728 0 000 7.878A4.225 4.225 0 0081.602 157a4.3 4.3 0 003.311-1.306 5.678 5.678 0 001.274-3.963 5.538 5.538 0 00-1.274-3.916 3.93 3.93 0 00-1.445-.987 4.957 4.957 0 00-1.85-.335 4.3 4.3 0 00-3.31 1.292zm5.26 6.628a2.527 2.527 0 01-3.908 0 4.205 4.205 0 01-.73-2.657 4.271 4.271 0 01.73-2.673 2.5 2.5 0 013.908 0 4.3 4.3 0 01.723 2.673 4.238 4.238 0 01-.725 2.654zm10.481-6.13h3.123v8.5h1.834v-8.5h3.123V146.7h-8.08zm11.173-1.585v10.085h1.834v-4.273h4.4v4.273h1.833V146.7h-1.833v4.211h-4.4V146.7zm12.509 10.085h6.5v-1.6h-4.665v-2.657h4.367v-1.585h-4.367v-2.657h4.662V146.7h-6.5zm10.677-10.086v10.085h1.833V148.9l2.952 6.775h1.2l2.859-6.557v7.661h1.85V146.7h-2.536l-2.767 6-2.766-6zm15.119 10.085h6.5v-1.6h-4.662v-2.657h4.367v-1.585h-4.367v-2.657h4.662V146.7h-6.5z" fill="#fff"/></svg>