<svg xmlns="http://www.w3.org/2000/svg" width="235.566" height="212.132" viewBox="0 0 235.566 212.132"><path d="M385.46,227.442h16.967v26.967H219.558V227.442h34.527a50.345,50.345,0,0,1-10.017-10.062,14.821,14.821,0,1,1-9.761-26.036c-.1-1.286-.165-2.581-.165-3.893a49.881,49.881,0,0,1,12.845-33.479A28.922,28.922,0,1,1,295.12,121.9a42.275,42.275,0,0,1,48.959-25.177c-.035-.463-.07-.925-.07-1.4a18.23,18.23,0,1,1,24.162,17.224,42.379,42.379,0,0,1,7.092,35.821,27.219,27.219,0,0,1,12.7,48.391,42.834,42.834,0,0,1-2.506,30.678ZM396.269,85.848a11.424,11.424,0,1,0-11.424-11.424A11.424,11.424,0,0,0,396.269,85.848ZM227.427,157.409A11.42,11.42,0,0,0,208.8,145.347a7.78,7.78,0,1,0-2.219,13.685,11.411,11.411,0,0,0,20.848-1.623Zm175.4-34.128a5.833,5.833,0,1,0,5.833-5.834A5.834,5.834,0,0,0,402.832,123.281Zm4.861,74.865a10.695,10.695,0,1,0,10.7,10.7A10.7,10.7,0,0,0,407.693,198.146Zm18.473,11.668A5.834,5.834,0,1,0,432,215.647,5.833,5.833,0,0,0,426.166,209.814ZM272.38,154.08q-6.291,7.3-6.291,21.387t6.291,21.387q5.953,6.963,16.355,6.962,10.316,0,16.187-6.962,6.373-7.464,6.374-21.387t-6.374-21.387a18.148,18.148,0,0,0-7.087-5.242,23.785,23.785,0,0,0-9.184-1.719Q278.334,147.119,272.38,154.08Zm28.684,21.387q0,9.395-3.229,14.3a10.97,10.97,0,0,1-18.284,0q-3.229-4.906-3.229-14.3t3.229-14.384a10.869,10.869,0,0,1,18.284,0Q301.063,166.075,301.064,175.467ZM324.128,203.4a7.173,7.173,0,0,0,5.033-1.845,6.091,6.091,0,0,0,2.012-4.7,6.359,6.359,0,0,0-2.012-4.78,6.989,6.989,0,0,0-5.033-1.929,6.7,6.7,0,0,0-4.948,1.929,6.491,6.491,0,0,0-1.93,4.78,6.213,6.213,0,0,0,1.93,4.7A6.868,6.868,0,0,0,324.128,203.4Zm12.664-41.6a19.445,19.445,0,0,0,8.64-2.1v42.943h9.9V147.873h-7.464a24.265,24.265,0,0,1-11.072,4.445Zm-111.876,85.8h8.115v-1.447h-6.458V241.66h6.08v-1.4h-6.08v-4.424h6.458V234.4h-8.115ZM238.775,234.4v13.189h1.678V236.858l6.647,10.736h1.845V234.4h-1.656v10.589L240.747,234.4Zm16.481,13.189h8.115v-1.447h-6.458V241.66h6.08v-1.4h-6.08v-4.424h6.458V234.4h-8.115Zm21.9-12.119a4.918,4.918,0,0,0-3.407-1.07h-4.592v13.189h1.656v-5.388h2.307l3.418,5.388h2.138l-3.774-5.472a4.211,4.211,0,0,0,2.569-1.3,3.9,3.9,0,0,0,.87-2.642A3.485,3.485,0,0,0,277.157,235.475Zm-6.343,5.577v-5.221h2.936a3.012,3.012,0,0,1,2.149.7,2.472,2.472,0,0,1,.745,1.887,2.505,2.505,0,0,1-.766,1.908,3.167,3.167,0,0,1-2.254.723Zm21.66,6.542h1.342v-6.521h-4.928v1.091l3.313.126v.041a4.268,4.268,0,0,1-.922,2.978,3.148,3.148,0,0,1-2.433,1.006,3.483,3.483,0,0,1-2.935-1.447,6.2,6.2,0,0,1-1.091-3.826,5.759,5.759,0,0,1,1.269-3.869,3.921,3.921,0,0,1,3.093-1.488,4,4,0,0,1,3.187,1.7l1.593-.545a5.356,5.356,0,0,0-2-2.013,5.617,5.617,0,0,0-2.715-.629,5.868,5.868,0,0,0-4.414,1.845,6.871,6.871,0,0,0-1.772,4.969,7.249,7.249,0,0,0,1.625,4.969,5.294,5.294,0,0,0,4.162,1.846,3.366,3.366,0,0,0,3.418-2.495ZM297.82,234.4l4.676,7.78v5.409h1.677v-5.409l4.739-7.78h-1.95l-3.628,6.06-3.543-6.06Zm31.242,3.208a3.62,3.62,0,0,0-1.289-2.505,4.947,4.947,0,0,0-3.24-.933,5.012,5.012,0,0,0-3.292.975,3.036,3.036,0,0,0-1.174,2.432,2.823,2.823,0,0,0,.839,2.212,7.007,7.007,0,0,0,2.474,1.3l2.328.86a3.946,3.946,0,0,1,1.52.838,1.838,1.838,0,0,1,.513,1.374,1.865,1.865,0,0,1-.839,1.51,3.665,3.665,0,0,1-2.275.639,3.781,3.781,0,0,1-2.348-.692,2.349,2.349,0,0,1-.912-1.992h-1.615a3.826,3.826,0,0,0,1.437,3.093,5.593,5.593,0,0,0,3.575,1.1,5.425,5.425,0,0,0,3.481-1.038,3.159,3.159,0,0,0,1.3-2.558,3.209,3.209,0,0,0-.828-2.359,5.671,5.671,0,0,0-2.233-1.321l-2.747-.944a3.717,3.717,0,0,1-1.425-.733,1.616,1.616,0,0,1-.441-1.227,1.731,1.731,0,0,1,.713-1.384,3.163,3.163,0,0,1,2.034-.576q2.473,0,2.831,1.928Zm4.571,9.981h1.741l1.132-3.355h5.242l1.132,3.355H344.6L340.175,234.4h-2.013Zm5.514-11.155,2.181,6.5h-4.382Zm7.885-2.034,4.655,13.189h1.719l4.676-13.189h-1.741l-3.8,11.093L348.772,234.4Zm15.641,13.189h1.657V234.4h-1.657ZM370.6,234.4v13.189h1.677V236.858l6.647,10.736h1.845V234.4h-1.656v10.589L372.571,234.4Zm24.867,13.189h1.343v-6.521h-4.928v1.091l3.313.126v.041a4.268,4.268,0,0,1-.923,2.978,3.146,3.146,0,0,1-2.432,1.006,3.487,3.487,0,0,1-2.936-1.447,6.2,6.2,0,0,1-1.09-3.826,5.759,5.759,0,0,1,1.269-3.869,3.917,3.917,0,0,1,3.092-1.488,4,4,0,0,1,3.188,1.7l1.593-.545a5.363,5.363,0,0,0-2-2.013,5.621,5.621,0,0,0-2.716-.629,5.868,5.868,0,0,0-4.413,1.845,6.871,6.871,0,0,0-1.772,4.969,7.244,7.244,0,0,0,1.625,4.969,5.293,5.293,0,0,0,4.162,1.846,3.367,3.367,0,0,0,3.418-2.495Zm-169.861,15.15a7.691,7.691,0,0,0-1.658,5.249,7.921,7.921,0,0,0,1.616,5.249,5.343,5.343,0,0,0,4.305,1.89,5.953,5.953,0,0,0,4-1.249,4.4,4.4,0,0,0,1.46-3.538h-2.667a2.4,2.4,0,0,1-.735,1.816,3.045,3.045,0,0,1-2.183.7,2.6,2.6,0,0,1-2.289-1.291,6.548,6.548,0,0,1-.84-3.59,6.03,6.03,0,0,1,.945-3.6,2.74,2.74,0,0,1,2.31-1.2,2.462,2.462,0,0,1,1.753.662,3.948,3.948,0,0,1,1.039,1.732l2.646-.483a5.018,5.018,0,0,0-1.722-3,4.968,4.968,0,0,0-1.6-.85,6.993,6.993,0,0,0-2.183-.305A5.338,5.338,0,0,0,225.606,262.744Zm15.474-.063a9.087,9.087,0,0,0,0,10.645,5.708,5.708,0,0,0,4.451,1.806A5.8,5.8,0,0,0,250,273.368a7.668,7.668,0,0,0,1.722-5.354A7.478,7.478,0,0,0,250,262.723a5.3,5.3,0,0,0-1.952-1.333,6.7,6.7,0,0,0-2.5-.452A5.8,5.8,0,0,0,241.08,262.681Zm7.107,8.955a3.415,3.415,0,0,1-5.28,0,5.682,5.682,0,0,1-.987-3.59,5.771,5.771,0,0,1,.987-3.611,3.377,3.377,0,0,1,5.28,0,5.816,5.816,0,0,1,.977,3.611A5.726,5.726,0,0,1,248.187,271.636Zm8.535-10.425v13.627H259.2v-9.994l6.194,9.994h2.519V261.211h-2.477v9.659l-6.005-9.659Zm15.369,2.142h4.221v11.485h2.477V263.353h4.22v-2.142H272.091Zm12.661,11.485h2.624l.966-2.94h5.06l.945,2.94h2.625L292.5,261.211h-3.108Zm6.152-10.666,1.889,5.858h-3.821Zm11.337-1.491a9.091,9.091,0,0,0,0,10.645,5.708,5.708,0,0,0,4.451,1.806,5.805,5.805,0,0,0,4.473-1.764,7.672,7.672,0,0,0,1.721-5.354,7.482,7.482,0,0,0-1.721-5.291,5.31,5.31,0,0,0-1.953-1.333,6.7,6.7,0,0,0-2.5-.452A5.8,5.8,0,0,0,302.241,262.681Zm7.107,8.955a3.415,3.415,0,0,1-5.28,0,5.682,5.682,0,0,1-.987-3.59,5.771,5.771,0,0,1,.987-3.611,3.377,3.377,0,0,1,5.28,0,5.816,5.816,0,0,1,.977,3.611A5.726,5.726,0,0,1,309.348,271.636Zm14.162-8.283h4.22v11.485h2.478V263.353h4.22v-2.142H323.51Zm15.1-2.142v13.627h2.478v-5.774h5.942v5.774H349.5V261.211h-2.477v5.69h-5.942v-5.69Zm16.9,13.627h8.777v-2.163h-6.3v-3.59h5.9v-2.142h-5.9v-3.59h6.3v-2.142h-8.777Zm14.425-13.627v13.627h2.477V264.193l3.989,9.154h1.617l3.863-8.86v10.351h2.5V261.211h-3.422l-3.738,8.105-3.737-8.105Zm20.428,13.627h8.777v-2.163h-6.3v-3.59h5.9v-2.142h-5.9v-3.59h6.3v-2.142h-8.777Z" transform="translate(-196.434 -63)" class="logo" /></svg>