<svg xmlns="http://www.w3.org/2000/svg" viewBox="0 0 272 272"><path fill="#F6D365" d="M0 0h272v272H0z"/><g opacity=".2" fill="#FFF"><path d="M249.2 272H272v-21.8c-5.9 8.9-13.7 16.3-22.8 21.8zM270.6 93.5h1.4V0h-44.1c-8.9 9.9-14.3 23-14.3 37.3 0 31 25.5 56.2 57 56.2z"/><path d="M220.7 140.7c.1-2.1.2-4.2.2-6.3 0-30.6-14.1-58-36.1-75.9 6.9-6.6 11.3-16 11.3-26.4 0-13.9-7.7-26-19.2-32.1h-34.7C130.8 6.2 123 18.3 123 32.1c0 1.5.1 2.9.3 4.4h-.3c-54.1 0-97.9 43.8-97.9 97.9 0 54.1 43.8 97.9 97.9 97.9 7.4 0 14.6-.8 21.5-2.4 4.9 17.8 16.5 32.8 32 42.1h72.6c9.2-5.5 17-12.9 22.8-21.8v-78.1c-11.2-17.1-29.8-29-51.2-31.4zM20 270.3c14.1 0 25.6-11.4 25.6-25.6S34.1 219.2 20 219.2c-8.1 0-15.3 3.8-20 9.6v31.9c4.7 5.8 11.9 9.6 20 9.6z"/></g><path fill="none" d="M0 0h272v272H0z"/><path d="M163.7 118.8c-.1 5.4-4.8 12.7-14.2 21.9l-22.7 22.2 12.6 70 .1.6c0 .9-.3 1.6-.9 2.1l-6.1 5.9c-.6.6-1.3.8-2.2.8-1.3 0-2.2-.6-2.7-1.7l-25-54.1-23.2 22.7c4.1 14.9 6.1 22.8 6.1 23.7s-.3 1.6-.9 2.1l-6.1 5.9c-.6.6-1.3.8-2.2.8-1.1 0-2-.5-2.6-1.5l-14.2-26.4-26-14.8c-1.1-.6-1.6-1.5-1.6-2.6 0-.9.3-1.6.9-2.1l6.1-6c.6-.6 1.3-.8 2.2-.8.9 0 8.7 2.2 23.5 6.6l23.2-22.7-53.5-26.3c-1.1-.5-1.7-1.4-1.7-2.7 0-.9.3-1.6.9-2.1l6.1-5.9c.6-.6 1.3-.8 2.2-.8.2 0 .4 0 .6.1l69.7 14.2 22.7-22.2c9.4-9.2 16.8-13.8 22.3-13.7 2 0 3.6.7 4.9 2s1.7 2.8 1.7 4.8z"/></svg>