<svg xmlns="http://www.w3.org/2000/svg" viewBox="0 0 272 272"><defs><style>.cls-1{fill:#b5b5b5;}.cls-2{opacity:0.2;}.cls-3{fill:#fff;}.cls-4{fill:none;}</style></defs><title>Element 5</title><g id="Ebene_2" data-name="Ebene 2"><g id="Ebene_1-2" data-name="Ebene 1"><rect id="Rechteck_4" data-name="Rechteck 4" class="cls-1" width="272" height="272"/><g class="cls-2"><path class="cls-3" d="M249.2,272H272V250.2A71.92,71.92,0,0,1,249.2,272Z"/><path class="cls-3" d="M270.6,93.5H272V0H227.9a55.65,55.65,0,0,0-14.3,37.3C213.6,68.3,239.1,93.5,270.6,93.5Z"/><path class="cls-3" d="M220.7,140.7c.1-2.1.2-4.2.2-6.3a97.71,97.71,0,0,0-36.1-75.9A36.46,36.46,0,0,0,176.9,0H142.2A36.64,36.64,0,0,0,123,32.1a32.53,32.53,0,0,0,.3,4.4H123a97.9,97.9,0,0,0,0,195.8,95.1,95.1,0,0,0,21.5-2.4,71.17,71.17,0,0,0,32,42.1h72.6a69.9,69.9,0,0,0,22.8-21.8V172.1A70.65,70.65,0,0,0,220.7,140.7Z"/><path class="cls-3" d="M20,270.3A25.55,25.55,0,1,0,0,228.8v31.9A25.73,25.73,0,0,0,20,270.3Z"/></g><rect class="cls-4" width="272" height="272"/><path id="path6" d="M163.7,118.8c-.1,5.4-4.8,12.7-14.2,21.9l-22.7,22.2,12.6,70,.1.6a2.58,2.58,0,0,1-.9,2.1l-6.1,5.9a2.86,2.86,0,0,1-2.2.8,2.75,2.75,0,0,1-2.7-1.7l-25-54.1L79.4,209.2c4.1,14.9,6.1,22.8,6.1,23.7a2.58,2.58,0,0,1-.9,2.1l-6.1,5.9a2.86,2.86,0,0,1-2.2.8,2.9,2.9,0,0,1-2.6-1.5L59.5,213.8,33.5,199a2.81,2.81,0,0,1-1.6-2.6,2.58,2.58,0,0,1,.9-2.1l6.1-6a2.86,2.86,0,0,1,2.2-.8c.9,0,8.7,2.2,23.5,6.6l23.2-22.7L34.3,145.1a2.75,2.75,0,0,1-1.7-2.7,2.58,2.58,0,0,1,.9-2.1l6.1-5.9a2.86,2.86,0,0,1,2.2-.8,1.27,1.27,0,0,1,.6.1l69.7,14.2,22.7-22.2c9.4-9.2,16.8-13.8,22.3-13.7a6.63,6.63,0,0,1,4.9,2A6.19,6.19,0,0,1,163.7,118.8Z"/></g></g></svg>