<svg xmlns="http://www.w3.org/2000/svg" viewBox="0 0 354 354"><defs><style>.cls-2{fill:#fff}</style></defs><g id="Ebene_2" data-name="Ebene 2"><g id="Ebene_1-2" data-name="Ebene 1"><circle id="Ellipse_50" data-name="Ellipse 50" cx="177" cy="177" r="177" fill="#f6d365"/><path class="cls-2" d="M248.87 185.33a74.79 74.79 0 01-1.05 12 72.53 72.53 0 01-5.18 17.09 71.68 71.68 0 01-18.37 24.91 65.17 65.17 0 01-10.76 7.81c-3 1.68-6.07 3.11-9.16 4.55a54.92 54.92 0 01-11.35 3.63 62.16 62.16 0 01-8.88 1.41c-3.83.28-7.69.31-11.54.23a50.67 50.67 0 01-12.54-1.89c-3.19-.88-6.37-1.82-9.47-3a71.47 71.47 0 01-22.28-14c-2.29-2.18-4.43-4.54-6.54-6.9a56.46 56.46 0 01-6.74-9.49c-1.35-2.33-2.56-4.76-3.71-7.2a61.58 61.58 0 01-4.49-13.48 90.58 90.58 0 01-1.45-10.23 71 71 0 01-.19-8.38A57.84 57.84 0 01107 169c.77-2.92 1.55-5.85 2.57-8.69a66 66 0 014.9-10.47 72.88 72.88 0 017.75-11.08 69.57 69.57 0 0110.66-10.21 65 65 0 018.72-5.79 7.52 7.52 0 019 1.89 7.42 7.42 0 011.06 8.13 7.17 7.17 0 01-3.06 3.29 57.08 57.08 0 00-23.83 26.87 58.19 58.19 0 00-4.13 15 57.4 57.4 0 00-.25 12.7 52.72 52.72 0 002.27 11.36 59 59 0 003.8 9.32 57 57 0 0012.47 16.14 56.06 56.06 0 0013.56 9.08 57.19 57.19 0 0026.62 5.52 55.3 55.3 0 0014.21-2.36 57.36 57.36 0 0028.15-19.16 55.74 55.74 0 006.78-10.87 56.34 56.34 0 004.45-13.43 54.57 54.57 0 001-12.82 56.18 56.18 0 00-2.64-15.19 59.46 59.46 0 00-3.68-8.93 56.75 56.75 0 00-21.94-23.13 7.51 7.51 0 016.9-13.34 67.15 67.15 0 0112.52 9 71.26 71.26 0 019.79 10.75 73.68 73.68 0 016.67 11 71.79 71.79 0 014.83 12.55 63.72 63.72 0 012.28 12.4c.19 2.22.3 4.47.44 6.8z"/><path class="cls-2" d="M184.5 143.3V182a7.48 7.48 0 01-8.88 7.47 7.35 7.35 0 01-6.17-7.41c-.05-4.67 0-9.34 0-14v-63.24a7.52 7.52 0 0114.67-2.61 12.86 12.86 0 01.4 3q0 19.02-.02 38.09z"/></g></g></svg>