<svg xmlns="http://www.w3.org/2000/svg" viewBox="0 0 272 272"><path fill="#F6D365" d="M0 0h272v272H0z"/><g opacity=".2" fill="#FFF"><path d="M155.5 263.8c-18.6-13.5-44.5-9.7-58.9 8.2H164c-2.4-3.1-5.2-5.8-8.5-8.2z"/><path d="M16.4 229.3C39 245.6 70 242 88.3 221.8c1.2 1 2.5 2 3.8 3 19 13.7 42.2 17.3 63.2 11.7 1 7.3 4.9 14.1 11.3 18.8 12.5 9 29.9 6.2 39-6.2 9-12.5 6.2-29.9-6.2-39-.9-.7-1.9-1.3-2.8-1.8 0-.1.1-.1.1-.2 24.2-33.5 16.7-80.2-16.7-104.5-33.5-24.2-80.2-16.7-104.5 16.7-3.3 4.6-6 9.4-8.2 14.4-22.3-8.4-48.2-1.2-62.9 19-1.6 2.3-3.1 4.6-4.3 7v49.5c3.7 7.3 9.2 13.9 16.3 19.1z"/><circle transform="rotate(-79.45 113.806 50.985)" cx="113.8" cy="51" r="19.5"/></g><path fill="none" d="M0 0h272v272H0z"/><path d="M233 170.6c0-2.6-.7-3.6-3.4-3.6-21.8.1-43.5.1-65.3 0-2.5 0-3.3.8-3.2 3.3.1 7.9-.1 15.7.1 23.6.1 3.5.2 7.2 1.2 10.6 3.8 13.4 12.5 22.1 26 25.8 1.5.4 3.6.2 3.6 3-.1 12.9-.2 25.9-.2 38.8h10.6v-.4c-.1-12 .1-24-.1-36.1-.1-3.3.9-4.7 4.2-5.5 15.7-3.9 26.4-17.7 26.6-33.7-.1-8.7-.2-17.3-.1-25.8zM213.6 159.2h10.1c.1-1.2.4-2.2.4-3.2v-32.8c0-1.1-.2-2.1-.4-3.2-.5-2.6-2.1-3.8-4.7-3.9-3.7-.1-5.7 2-5.7 6.5v33.9c0 .8.2 1.7.3 2.7zM170.6 159.2h10.1v-37.5c0-3.8-1.8-5.7-5.3-5.6-3.5 0-5 1.8-5 5.8v33.9c0 1.1.1 2.2.2 3.4z"/></svg>