<svg xmlns="http://www.w3.org/2000/svg" viewBox="0 0 272 272"><path fill="#F9B163" d="M0 0h272v272H0z"/><g opacity=".2" fill="#FFF"><path d="M175 41.8c-30 2-53.1 26.4-54.3 55.7-1.7 0-3.4.1-5.2.2-25.1 1.7-46.8 14.8-60.3 33.9-5.8-5.3-13.8-8.3-22.3-7.8C16.3 125 3.8 139.3 5 155.9c1.1 16.6 15.5 29.1 32 27.9 1.2-.1 2.4-.2 3.6-.5v.2c3 44.4 41.5 77.9 85.9 74.9 44.4-3 77.9-41.5 74.9-85.9-.4-6.1-1.5-11.9-3.2-17.5 24.2-8.4 40.8-32.2 38.9-59-2.2-32.1-30-56.4-62.1-54.2z"/><path d="M36.1 109.2c25.5-1.7 44.8-24.1 43-49.9S55.3 13.8 29.7 15.6C18 16.4 7.6 21.5 0 29.4v65.9c9.2 9.3 22.1 14.8 36.1 13.9zM238.3 255.1c-.8-11.6-10.8-20.4-22.4-19.6-11.6.8-20.4 10.8-19.6 22.4.4 5.6 3 10.6 6.8 14.1h28.4c4.6-4.2 7.3-10.3 6.8-16.9z"/></g><path fill="none" d="M0 0h272v272H0z"/><path d="M110.1 195.3c-2.8 1.4-6.5 2-11 2-5.9 0-10.6-1.7-14-5.2-3.4-3.5-5.1-8.1-5.1-13.9 0-6.2 1.9-11.2 5.7-15s8.8-5.8 14.9-5.8c3.8 0 6.9.5 9.5 1.4v8.4c-2.6-1.5-5.5-2.3-8.8-2.3-3.6 0-6.6 1.1-8.8 3.4s-3.3 5.4-3.3 9.3c0 3.7 1.1 6.7 3.2 8.9s4.9 3.3 8.5 3.3c3.4 0 6.5-.8 9.3-2.5v8zM132.5 197.3c-5.5 0-10-1.8-13.5-5.4-3.5-3.6-5.2-8.3-5.2-14.1 0-6.1 1.8-11 5.3-14.8 3.5-3.8 8.2-5.7 14.1-5.7 5.5 0 10 1.8 13.4 5.4 3.4 3.6 5.1 8.4 5.1 14.3 0 6.1-1.8 11-5.3 14.7-3.6 3.7-8.2 5.6-13.9 5.6zm.4-32.5c-3.1 0-5.5 1.1-7.3 3.4-1.8 2.3-2.7 5.3-2.7 9.1s.9 6.8 2.7 9.1 4.1 3.3 7.1 3.3 5.4-1.1 7.1-3.2 2.6-5.2 2.6-9c0-4-.9-7.1-2.6-9.3s-4-3.4-6.9-3.4zM173 203.1h-16.3v-2.3c0-1.3.2-2.4.7-3.4.5-1 1.1-1.8 1.8-2.6s1.5-1.4 2.3-2 1.6-1.2 2.3-1.8c.7-.6 1.3-1.2 1.8-1.9s.7-1.4.7-2.3c0-.8-.3-1.3-.8-1.7-.5-.4-1.2-.6-2-.6-.4 0-.9.1-1.4.2-.5.1-1 .3-1.5.5s-1 .4-1.5.7-.9.6-1.2.9v-5.2c1.1-.7 2.2-1.2 3.3-1.4 1.1-.3 2.3-.4 3.4-.4s2.2.1 3.1.4c1 .3 1.8.7 2.5 1.3.7.6 1.3 1.3 1.7 2.2s.6 1.9.6 3c0 1-.2 2-.7 2.9-.5.9-1 1.7-1.7 2.5s-1.4 1.5-2.2 2.2c-.8.7-1.5 1.3-2.2 1.8s-1.3 1-1.7 1.3c-.5.4-.7.7-.7.9v.1h9.5v4.7zM214.4 262.4c-.7.4-1.7.5-2.9.5-1.6 0-2.8-.5-3.7-1.4-.9-.9-1.3-2.1-1.3-3.6 0-1.6.5-2.9 1.5-3.9s2.3-1.5 3.9-1.5c1 0 1.8.1 2.5.4v2.2c-.7-.4-1.4-.6-2.3-.6-1 0-1.7.3-2.3.9-.6.6-.9 1.4-.9 2.4s.3 1.8.8 2.3c.6.6 1.3.9 2.2.9.9 0 1.7-.2 2.4-.6v2zM220.3 263c-1.4 0-2.6-.5-3.5-1.4-.9-.9-1.4-2.2-1.4-3.7 0-1.6.5-2.9 1.4-3.9.9-1 2.2-1.5 3.7-1.5 1.4 0 2.6.5 3.5 1.4.9.9 1.3 2.2 1.3 3.7 0 1.6-.5 2.9-1.4 3.8-.9 1.1-2.1 1.6-3.6 1.6zm.1-8.5c-.8 0-1.4.3-1.9.9-.5.6-.7 1.4-.7 2.4s.2 1.8.7 2.4c.5.6 1.1.9 1.8.9.8 0 1.4-.3 1.9-.9.5-.6.7-1.4.7-2.4s-.2-1.9-.7-2.4c-.4-.6-1-.9-1.8-.9zM230.9 264.5h-4.3v-.6c0-.3.1-.6.2-.9s.3-.5.5-.7c.2-.2.4-.4.6-.5s.4-.3.6-.5l.5-.5c.1-.2.2-.4.2-.6 0-.2-.1-.3-.2-.5-.1-.1-.3-.2-.5-.2h-.4c-.1 0-.3.1-.4.1-.1.1-.3.1-.4.2s-.2.2-.3.2v-1.4c.3-.2.6-.3.9-.4s.6-.1.9-.1c.3 0 .6 0 .8.1.3.1.5.2.7.3.2.2.3.3.4.6s.2.5.2.8c0 .3-.1.5-.2.7-.1.2-.3.5-.4.7l-.6.6c-.2.2-.4.3-.6.5-.2.1-.3.3-.4.4l-.2.2h2.5v1.5z"/><g><path d="M26.6 71c-1.3.6-3 1-5.2 1-2.8 0-5-.8-6.5-2.4s-2.4-3.8-2.4-6.5c0-2.9.9-5.2 2.7-7s4.1-2.7 6.9-2.7c1.8 0 3.3.2 4.5.7V58c-1.2-.7-2.6-1.1-4.1-1.1-1.7 0-3.1.5-4.1 1.6s-1.6 2.5-1.6 4.3c0 1.7.5 3.1 1.5 4.2 1 1 2.3 1.6 4 1.6 1.6 0 3-.4 4.4-1.2V71zM37 72c-2.6 0-4.7-.8-6.3-2.5-1.6-1.7-2.4-3.9-2.4-6.6 0-2.9.8-5.2 2.5-6.9 1.7-1.8 3.8-2.6 6.6-2.6 2.6 0 4.7.8 6.3 2.5 1.6 1.7 2.4 3.9 2.4 6.7 0 2.8-.8 5.1-2.5 6.9S39.7 72 37 72zm.2-15.2c-1.4 0-2.6.5-3.4 1.6-.8 1.1-1.3 2.5-1.3 4.3 0 1.8.4 3.2 1.3 4.2s1.9 1.6 3.3 1.6 2.5-.5 3.3-1.5c.8-1 1.2-2.4 1.2-4.2 0-1.9-.4-3.3-1.2-4.4s-1.8-1.6-3.2-1.6zM56 74.7h-7.6v-1.1c0-.6.1-1.1.3-1.6.2-.5.5-.9.8-1.2.3-.3.7-.7 1.1-1 .4-.3.8-.6 1.1-.9.3-.3.6-.6.8-.9.2-.3.3-.7.3-1.1 0-.4-.1-.6-.4-.8-.2-.2-.6-.3-1-.3-.2 0-.4 0-.7.1-.2.1-.5.1-.7.2-.2.1-.5.2-.7.3-.2.1-.4.3-.6.4v-2.4c.5-.3 1-.6 1.5-.7.5-.1 1.1-.2 1.6-.2s1 .1 1.5.2.8.3 1.2.6c.3.3.6.6.8 1 .2.4.3.9.3 1.4 0 .5-.1.9-.3 1.3-.2.4-.5.8-.8 1.2-.3.4-.7.7-1 1-.4.3-.7.6-1 .8-.3.2-.6.5-.8.6-.2.2-.3.3-.3.4v.1H56v2.6z"/></g><g><path d="M173 106.5c-1.5.7-3.5 1.1-5.9 1.1-3.1 0-5.6-.9-7.4-2.8-1.8-1.9-2.7-4.3-2.7-7.4 0-3.3 1-5.9 3-8s4.7-3.1 7.9-3.1c2 0 3.7.3 5.1.8v4.4c-1.4-.8-2.9-1.2-4.7-1.2-1.9 0-3.5.6-4.7 1.8s-1.8 2.9-1.8 4.9c0 2 .6 3.6 1.7 4.7s2.6 1.8 4.5 1.8c1.8 0 3.5-.4 5-1.3v4.3zM184.9 107.6c-2.9 0-5.3-1-7.2-2.9s-2.8-4.4-2.8-7.5c0-3.2.9-5.9 2.8-7.9s4.4-3 7.5-3c2.9 0 5.3 1 7.1 2.9 1.8 1.9 2.7 4.4 2.7 7.6 0 3.2-.9 5.8-2.8 7.8s-4.3 3-7.3 3zm.2-17.3c-1.6 0-2.9.6-3.9 1.8-1 1.2-1.4 2.8-1.4 4.8s.5 3.6 1.4 4.8c1 1.2 2.2 1.8 3.7 1.8 1.6 0 2.9-.6 3.8-1.7.9-1.1 1.4-2.7 1.4-4.8 0-2.1-.5-3.8-1.4-5-.8-1.1-2-1.7-3.6-1.7zM206.4 110.7h-8.6v-1.2c0-.7.1-1.3.4-1.8.3-.5.6-1 1-1.4.4-.4.8-.8 1.2-1.1s.9-.7 1.2-1c.4-.3.7-.7 1-1 .3-.3.4-.8.4-1.2 0-.4-.1-.7-.4-.9-.3-.2-.6-.3-1.1-.3-.2 0-.5 0-.8.1-.3.1-.6.1-.8.2s-.5.2-.8.4-.5.3-.7.5v-2.8c.6-.4 1.2-.6 1.7-.8s1.2-.2 1.8-.2c.6 0 1.1.1 1.7.2s1 .4 1.3.7c.4.3.7.7.9 1.2.2.5.3 1 .3 1.6 0 .5-.1 1-.4 1.5-.2.5-.5.9-.9 1.3l-1.2 1.2c-.4.4-.8.7-1.2.9-.4.3-.7.5-.9.7-.2.2-.4.4-.4.5v.1h5.1v2.6z"/></g></svg>