<svg xmlns="http://www.w3.org/2000/svg" viewBox="0 0 272 272"><defs><style>.cls-1{fill:#afafaf;}.cls-2{opacity:0.2;}.cls-3{fill:#fff;}.cls-4{fill:none;}</style></defs><title>Element 6</title><g id="Ebene_2" data-name="Ebene 2"><g id="Ebene_1-2" data-name="Ebene 1"><rect id="Rechteck_4" data-name="Rechteck 4" class="cls-1" width="272" height="272"/><g class="cls-2"><path class="cls-3" d="M175,41.83a58.33,58.33,0,0,0-54.29,55.71c-1.71,0-3.44.06-5.17.17a80.43,80.43,0,0,0-60.31,33.9,30.08,30.08,0,1,0-14.6,51.74,1.7,1.7,0,0,1,0,.22,80.57,80.57,0,1,0,157.58-28.5A58.32,58.32,0,0,0,175,41.83Z"/><path class="cls-3" d="M36.13,109.15c25.51-1.74,44.76-24.09,43-49.93S55.26,13.84,29.75,15.58A45.81,45.81,0,0,0,0,29.37V95.24A45.9,45.9,0,0,0,36.13,109.15Z"/><path class="cls-3" d="M238.32,255.06A21,21,0,1,0,203.13,272h28.4A21,21,0,0,0,238.32,255.06Z"/></g><rect class="cls-4" width="272" height="272"/><path d="M110.11,195.26a25.54,25.54,0,0,1-11,2q-8.89,0-14-5.22T80,178.15q0-9.26,5.72-15t14.86-5.77a27.77,27.77,0,0,1,9.53,1.43v8.38a16.82,16.82,0,0,0-8.83-2.32,11.7,11.7,0,0,0-8.78,3.42q-3.34,3.42-3.34,9.26a12.43,12.43,0,0,0,3.15,8.93,11.12,11.12,0,0,0,8.48,3.33,18.11,18.11,0,0,0,9.32-2.48Z"/><path d="M132.49,197.3A18,18,0,0,1,119,191.9q-5.22-5.4-5.22-14.07,0-9.15,5.3-14.81t14.06-5.66q8.26,0,13.37,5.42t5.11,14.27q0,9.1-5.29,14.68T132.49,197.3Zm.38-32.45a8.74,8.74,0,0,0-7.27,3.43,14.3,14.3,0,0,0-2.7,9.09c0,3.83.9,6.85,2.7,9.08a8.61,8.61,0,0,0,7.05,3.34,8.71,8.71,0,0,0,7.14-3.25q2.64-3.24,2.64-9,0-6-2.56-9.34A8.32,8.32,0,0,0,132.87,164.85Z"/><path d="M173,203.15H156.73v-2.26a7.44,7.44,0,0,1,.73-3.4,10.49,10.49,0,0,1,1.8-2.57,18.46,18.46,0,0,1,2.35-2q1.26-.93,2.34-1.83a10.88,10.88,0,0,0,1.8-1.88,3.72,3.72,0,0,0,.73-2.28,2.12,2.12,0,0,0-.75-1.74,3.21,3.21,0,0,0-2-.6,7,7,0,0,0-1.43.16,9.68,9.68,0,0,0-1.54.46,10.12,10.12,0,0,0-1.49.7,5.79,5.79,0,0,0-1.22.91v-5.22a10.38,10.38,0,0,1,3.28-1.44,15.21,15.21,0,0,1,3.45-.39,10.57,10.57,0,0,1,3.13.44,7.18,7.18,0,0,1,2.51,1.33,6.54,6.54,0,0,1,1.69,2.19,6.85,6.85,0,0,1,.62,3,6.18,6.18,0,0,1-.69,2.85,12.79,12.79,0,0,1-1.71,2.53,19,19,0,0,1-2.21,2.18c-.79.67-1.52,1.26-2.21,1.78s-1.25,1-1.71,1.35-.68.67-.68.89v.1H173Z"/><path d="M214.43,262.43a6.62,6.62,0,0,1-2.89.54,4.91,4.91,0,0,1-3.67-1.37,5,5,0,0,1-1.33-3.65A5.35,5.35,0,0,1,208,254a5.24,5.24,0,0,1,3.89-1.51,7.53,7.53,0,0,1,2.5.37v2.2a4.48,4.48,0,0,0-2.31-.61,3.06,3.06,0,0,0-2.3.9,3.31,3.31,0,0,0-.88,2.43,3.26,3.26,0,0,0,.83,2.34A2.91,2.91,0,0,0,212,261a4.76,4.76,0,0,0,2.44-.65Z"/><path d="M220.3,263a4.72,4.72,0,0,1-3.55-1.42,5.07,5.07,0,0,1-1.36-3.68,5.45,5.45,0,0,1,1.39-3.89,4.78,4.78,0,0,1,3.68-1.48,4.6,4.6,0,0,1,3.51,1.42,5.24,5.24,0,0,1,1.33,3.74,5.39,5.39,0,0,1-1.38,3.85A4.78,4.78,0,0,1,220.3,263Zm.1-8.51a2.3,2.3,0,0,0-1.91.9,3.77,3.77,0,0,0-.7,2.39,3.66,3.66,0,0,0,.7,2.37,2.43,2.43,0,0,0,3.72,0,3.66,3.66,0,0,0,.69-2.36,3.92,3.92,0,0,0-.67-2.45A2.16,2.16,0,0,0,220.4,254.46Z"/><path d="M230.91,264.5h-4.26v-.59a1.91,1.91,0,0,1,.19-.89,3,3,0,0,1,.47-.68,5.25,5.25,0,0,1,.62-.53c.22-.16.42-.32.61-.48a2.81,2.81,0,0,0,.48-.5,1,1,0,0,0,.19-.59.57.57,0,0,0-.2-.46.87.87,0,0,0-.54-.16,1.72,1.72,0,0,0-.37.05,1.59,1.59,0,0,0-.41.12,3.39,3.39,0,0,0-.39.18,1.57,1.57,0,0,0-.32.24v-1.37a2.94,2.94,0,0,1,.86-.38,4,4,0,0,1,.91-.1,2.76,2.76,0,0,1,.82.12,1.75,1.75,0,0,1,.66.35,1.68,1.68,0,0,1,.44.57,1.73,1.73,0,0,1,.16.78,1.66,1.66,0,0,1-.18.75,3.21,3.21,0,0,1-.45.66,4.46,4.46,0,0,1-.58.57c-.2.18-.4.33-.58.47l-.44.35q-.18.15-.18.24v0h2.49Z"/><path d="M27.24,71a11.88,11.88,0,0,1-5.16,1,8.68,8.68,0,0,1-6.54-2.44A8.93,8.93,0,0,1,13.15,63a9.57,9.57,0,0,1,2.68-7,9.4,9.4,0,0,1,7-2.69,13.15,13.15,0,0,1,4.46.66v3.92a7.93,7.93,0,0,0-4.13-1.08A5.47,5.47,0,0,0,19,58.39a5.94,5.94,0,0,0-1.56,4.33,5.84,5.84,0,0,0,1.47,4.18,5.22,5.22,0,0,0,4,1.56,8.49,8.49,0,0,0,4.36-1.16Z"/><path d="M37.71,72a8.41,8.41,0,0,1-6.32-2.52,9.09,9.09,0,0,1-2.45-6.59,9.76,9.76,0,0,1,2.48-6.93A8.62,8.62,0,0,1,38,53.29a8.2,8.2,0,0,1,6.26,2.53,9.34,9.34,0,0,1,2.39,6.68,9.54,9.54,0,0,1-2.48,6.86A8.49,8.49,0,0,1,37.71,72Zm.18-15.18a4.07,4.07,0,0,0-3.4,1.61,6.68,6.68,0,0,0-1.26,4.25,6.55,6.55,0,0,0,1.26,4.24,4,4,0,0,0,3.3,1.57,4.1,4.1,0,0,0,3.34-1.52,6.53,6.53,0,0,0,1.23-4.22,7,7,0,0,0-1.2-4.37A3.89,3.89,0,0,0,37.89,56.79Z"/><path d="M56.66,74.71H49.05V73.65a3.58,3.58,0,0,1,.34-1.59,4.91,4.91,0,0,1,.85-1.2,8.32,8.32,0,0,1,1.09-1c.4-.29.76-.58,1.1-.86a4.93,4.93,0,0,0,.84-.88,1.72,1.72,0,0,0,.34-1.06,1,1,0,0,0-.35-.82,1.48,1.48,0,0,0-1-.28,3.47,3.47,0,0,0-.67.08,4.89,4.89,0,0,0-.72.21,4.37,4.37,0,0,0-.69.33,2.37,2.37,0,0,0-.58.43V64.6a4.81,4.81,0,0,1,1.54-.67,7.16,7.16,0,0,1,1.61-.19,5,5,0,0,1,1.47.21,3.3,3.3,0,0,1,1.17.63,2.75,2.75,0,0,1,.79,1,3.24,3.24,0,0,1,.29,1.4,2.93,2.93,0,0,1-.32,1.33,5.77,5.77,0,0,1-.8,1.19,11,11,0,0,1-1,1c-.37.31-.72.58-1,.83s-.58.45-.8.63-.32.31-.32.41v0h4.46Z"/><path d="M173.66,106.49a13.46,13.46,0,0,1-5.87,1.09,9.87,9.87,0,0,1-7.42-2.77,10.14,10.14,0,0,1-2.71-7.4,10.9,10.9,0,0,1,3-8,10.65,10.65,0,0,1,7.89-3.06,14.68,14.68,0,0,1,5.07.76v4.45A9,9,0,0,0,169,90.34a6.24,6.24,0,0,0-4.67,1.82,6.74,6.74,0,0,0-1.77,4.92,6.6,6.6,0,0,0,1.67,4.74,5.92,5.92,0,0,0,4.51,1.77,9.6,9.6,0,0,0,4.95-1.32Z"/><path d="M185.55,107.58a9.55,9.55,0,0,1-7.18-2.87,10.29,10.29,0,0,1-2.78-7.47,11,11,0,0,1,2.82-7.87,9.74,9.74,0,0,1,7.47-3,9.3,9.3,0,0,1,7.1,2.88,10.59,10.59,0,0,1,2.71,7.58,10.84,10.84,0,0,1-2.81,7.8A9.66,9.66,0,0,1,185.55,107.58Zm.2-17.24a4.66,4.66,0,0,0-3.86,1.82A7.59,7.59,0,0,0,180.45,97a7.43,7.43,0,0,0,1.44,4.82,4.55,4.55,0,0,0,3.74,1.78,4.65,4.65,0,0,0,3.8-1.73,7.38,7.38,0,0,0,1.4-4.78,8.07,8.07,0,0,0-1.36-5A4.45,4.45,0,0,0,185.75,90.34Z"/><path d="M207.07,110.69h-8.64v-1.21a4,4,0,0,1,.38-1.8,5.81,5.81,0,0,1,1-1.37,10,10,0,0,1,1.25-1.08c.44-.33.86-.66,1.24-1a6,6,0,0,0,1-1,2,2,0,0,0,.39-1.21,1.12,1.12,0,0,0-.41-.92,1.69,1.69,0,0,0-1.08-.32,4.37,4.37,0,0,0-.76.08,4.84,4.84,0,0,0-.82.25,5.19,5.19,0,0,0-.79.37,3,3,0,0,0-.65.49V99.21a5.31,5.31,0,0,1,1.74-.76,8,8,0,0,1,1.84-.21,5.82,5.82,0,0,1,1.65.23,3.81,3.81,0,0,1,1.34.71,3.43,3.43,0,0,1,.9,1.16,3.64,3.64,0,0,1,.33,1.59,3.38,3.38,0,0,1-.37,1.52,6.47,6.47,0,0,1-.91,1.34,9.86,9.86,0,0,1-1.17,1.16c-.42.35-.81.67-1.17.94s-.67.52-.91.72-.37.36-.37.47v.06h5.07Z"/></g></g></svg>