<svg xmlns="http://www.w3.org/2000/svg" viewBox="0 0 272 272"><path fill="#F9B163" d="M0 0h272v272H0z"/><g opacity=".2" fill="#FFF"><path d="M109.1 257.4c.1 0 .2 0 .2.1 49.5 14 101.1-14.8 115.1-64.4s-14.8-101-64.4-115c-6.8-1.9-13.6-3-20.4-3.4.2-29.6-19.2-57-49.1-65.4C54.7-.9 17.4 20 7.2 55.8c-9.5 33.4 8 68.1 39.5 80.9-.7 1.9-1.3 3.8-1.8 5.7-7.9 28.1-2.1 56.8 13.4 78.9-8.1 4.3-14.5 11.7-17.1 21.2-3 10.5-.8 21.2 5 29.4h57c2.2-3.1 3.9-6.6 5-10.5.4-1.3.6-2.6.9-4z"/><path d="M26.5 233.4c6.9-24.6-4.7-50-26.5-61.8V266c12.5-6.7 22.4-18.1 26.5-32.6zM264.3 69.9c-12.9-3.7-26.4 3.9-30.1 16.8-3.7 12.9 3.9 26.4 16.8 30.1 7.5 2.1 15.2.5 21-3.8V73.7c-2.3-1.7-4.9-3-7.7-3.8z"/></g><path fill="none" d="M0 0h272v272H0z"/><path fill="none" d="M68.8 29h173v214h-173z"/><text transform="translate(68.83 43.32)"><tspan x="0" y="0" font-family="'Arial'" font-size="20">011101010100000</tspan><tspan x="0" y="24" font-family="'Arial'" font-size="20">001110000011001</tspan><tspan x="0" y="48" font-family="'Arial'" font-size="20">000110100101110</tspan><tspan x="0" y="72" font-family="'Arial'" font-size="20">010001011100110</tspan><tspan x="0" y="96" font-family="'Arial'" font-size="20">010001100101</tspan></text></svg>