<?xml version="1.0" encoding="utf-8"?>
<!-- Generator: Adobe Illustrator 23.0.3, SVG Export Plug-In . SVG Version: 6.00 Build 0)  -->
<svg version="1.1" id="Ebene_1" xmlns="http://www.w3.org/2000/svg" xmlns:xlink="http://www.w3.org/1999/xlink" x="0px" y="0px"
	 viewBox="0 0 272 272" enable-background="new 0 0 272 272" xml:space="preserve">
<g>
	<rect id="Rechteck_4_8_" x="0" y="0" fill="#AFAFAF" width="272" height="272"/>
	<g opacity="0.2">
		<path fill="#FFFFFF" d="M109.1,257.4c0.1,0,0.2,0,0.2,0.1c49.5,14,101.1-14.8,115.1-64.4S209.6,92.1,160,78.1
			c-6.8-1.9-13.6-3-20.4-3.4c0.2-29.6-19.2-57-49.1-65.4C54.7-0.9,17.4,20,7.2,55.8c-9.5,33.4,8,68.1,39.5,80.9
			c-0.7,1.9-1.3,3.8-1.8,5.7c-7.9,28.1-2.1,56.8,13.4,78.9c-8.1,4.3-14.5,11.7-17.1,21.2c-3,10.5-0.8,21.2,5,29.4h57
			c2.2-3.1,3.9-6.6,5-10.5C108.6,260.1,108.8,258.8,109.1,257.4z"/>
		<path fill="#FFFFFF" d="M26.5,233.4c6.9-24.6-4.7-50-26.5-61.8v94.4C12.5,259.3,22.4,247.9,26.5,233.4z"/>
		<path fill="#FFFFFF" d="M264.3,69.9c-12.9-3.7-26.4,3.9-30.1,16.8c-3.7,12.9,3.9,26.4,16.8,30.1c7.5,2.1,15.2,0.5,21-3.8V73.7
			C269.7,72,267.1,70.7,264.3,69.9z"/>
	</g>
	<rect x="0" y="0" fill="none" width="272" height="272"/>
	<rect x="68.8" y="29" fill="none" width="173" height="214"/>
	<text transform="matrix(1 0 0 1 68.8299 43.319)"><tspan x="0" y="0" font-family="'Arial'" font-size="20px">011101010100000</tspan><tspan x="0" y="24" font-family="'Arial'" font-size="20px">001110000011001</tspan><tspan x="0" y="48" font-family="'Arial'" font-size="20px">000110100101110</tspan><tspan x="0" y="72" font-family="'Arial'" font-size="20px">010001011100110</tspan><tspan x="0" y="96" font-family="'Arial'" font-size="20px">010001100101</tspan></text>
</g>
</svg>
