<svg xmlns="http://www.w3.org/2000/svg" width="1359.027" height="727.962" viewBox="0 0 1359.027 727.962"><defs><style>.a{opacity:0.2;}.b{fill:#fff;}</style></defs><g class="a" transform="translate(-244 -299.038)"><path class="b" d="M1502.6,482.4a30.5,30.5,0,1,0-53.01-25.9,224.759,224.759,0,0,0-274.882,118.779A249.2,249.2,0,0,0,1039.557,526.4c-35.906-131.051-155.839-227.362-298.285-227.362-144.194,0-265.336,98.68-299.587,232.19A107.505,107.505,0,1,0,456.7,729.6C503.87,840.118,613.521,917.581,741.272,917.581a310.075,310.075,0,0,0,71.744-8.383A250.315,250.315,0,0,0,1025.5,1027c108.676,0,201.175-69.211,235.858-165.956a223.444,223.444,0,0,0,117.166,32.972c123.99,0,224.5-100.514,224.5-224.5A224.282,224.282,0,0,0,1502.6,482.4Z"/><circle class="b" cx="50.5" cy="50.5" r="50.5" transform="translate(284 425)"/><circle class="b" cx="18.5" cy="18.5" r="18.5" transform="translate(244 476)"/><circle class="b" cx="21" cy="21" r="21" transform="translate(1533 411)"/><circle class="b" cx="56" cy="56" r="56" transform="translate(1337 319)"/></g></svg>