<svg xmlns="http://www.w3.org/2000/svg" width="27.692" height="22.5" viewBox="0 0 27.692 22.5"><path d="M305.156,1401.074a16.033,16.033,0,0,1-1.893,7.518,15.442,15.442,0,0,1-5.462,6.112,16.37,16.37,0,0,1-17.525,0q.6.055,1.352.055a11.261,11.261,0,0,0,7.085-2.434,5.283,5.283,0,0,1-3.326-1.109,5.652,5.652,0,0,1-1.975-2.785q.541.054,1.028.054a7.238,7.238,0,0,0,1.515-.161,5.727,5.727,0,0,1-3.245-2,5.444,5.444,0,0,1-1.3-3.57v-.108a5.35,5.35,0,0,0,2.542.757,6.294,6.294,0,0,1-1.839-2.055,5.508,5.508,0,0,1,.108-5.571,15.885,15.885,0,0,0,11.682,5.949,7.855,7.855,0,0,1-.108-1.3,5.631,5.631,0,0,1,.758-2.839,5.56,5.56,0,0,1,2.055-2.083,5.485,5.485,0,0,1,2.812-.757,5.418,5.418,0,0,1,2.3.487,6.428,6.428,0,0,1,1.866,1.3,11.559,11.559,0,0,0,3.624-1.352,5.641,5.641,0,0,1-2.488,3.137,12.19,12.19,0,0,0,3.245-.92,12.5,12.5,0,0,1-2.866,2.975A3.215,3.215,0,0,1,305.156,1401.074Z" transform="translate(-280.276 -1394.746)"/></svg>