<svg xmlns="http://www.w3.org/2000/svg" width="24.231" height="24.23" viewBox="0 0 24.231 24.23"><path d="M309.453,1463.706q.054,1.515.054,5.03t-.081,5.057a10.2,10.2,0,0,1-.46,2.678,6.33,6.33,0,0,1-3.84,3.84,10.223,10.223,0,0,1-2.677.46q-1.542.081-5.058.081t-5.057-.081a8.846,8.846,0,0,1-2.677-.514,5.759,5.759,0,0,1-2.353-1.434,6.3,6.3,0,0,1-1.488-2.352,10.2,10.2,0,0,1-.459-2.678q-.081-1.542-.082-5.057t.082-5.057a10.2,10.2,0,0,1,.459-2.678,6.335,6.335,0,0,1,3.841-3.84,10.184,10.184,0,0,1,2.677-.459q1.542-.082,5.057-.082t5.058.082a10.184,10.184,0,0,1,2.677.459,6.331,6.331,0,0,1,3.84,3.84A11.025,11.025,0,0,1,309.453,1463.706Zm-2.6,12.169a11.4,11.4,0,0,0,.433-2.921q.053-1.19.054-3.353v-1.731q0-2.218-.054-3.353a10.863,10.863,0,0,0-.433-2.921,3.9,3.9,0,0,0-2.325-2.326,10.877,10.877,0,0,0-2.921-.432q-1.191-.054-3.354-.054h-1.731q-2.163,0-3.353.054a11.415,11.415,0,0,0-2.921.432,3.9,3.9,0,0,0-2.325,2.326,10.831,10.831,0,0,0-.433,2.921q-.054,1.19-.054,3.353v1.731q0,2.163.054,3.353a11.366,11.366,0,0,0,.433,2.921,4.1,4.1,0,0,0,2.325,2.326,11.376,11.376,0,0,0,2.921.432q1.19.054,3.353.055h1.731q2.218,0,3.354-.055a10.841,10.841,0,0,0,2.921-.432A4.1,4.1,0,0,0,306.857,1475.876Zm-9.465-13.359a6.05,6.05,0,0,1,3.11.838,6.234,6.234,0,0,1,2.272,2.272,6.187,6.187,0,0,1,0,6.22,6.227,6.227,0,0,1-2.272,2.272,6.187,6.187,0,0,1-6.22,0,6.239,6.239,0,0,1-2.272-2.272,6.187,6.187,0,0,1,0-6.22,6.245,6.245,0,0,1,2.272-2.272A6.051,6.051,0,0,1,297.391,1462.516Zm0,10.277a4.063,4.063,0,1,0-2.866-1.19A3.909,3.909,0,0,0,297.391,1472.793Zm7.951-10.547a1.453,1.453,0,1,0-1.46,1.46,1.318,1.318,0,0,0,1-.432A1.689,1.689,0,0,0,305.342,1462.246Z" transform="translate(-285.276 -1456.621)"/></svg>