<svg xmlns="http://www.w3.org/2000/svg" width="29.532" height="20.769"><path d="M28.936 3.245a24.4 24.4 0 01.541 4.435l.055 2.7-.055 2.7a24.7 24.7 0 01-.541 4.489 3.838 3.838 0 01-2.65 2.6 38.522 38.522 0 01-6.6.541l-4.922.054-4.922-.054a38.524 38.524 0 01-6.6-.541 3.842 3.842 0 01-2.651-2.6A24.774 24.774 0 01.05 13.08l-.054-2.7q0-1.19.054-2.7a24.472 24.472 0 01.541-4.435A3.779 3.779 0 013.242.595a38.4 38.4 0 016.6-.542l4.922-.054 4.922.054a38.4 38.4 0 016.6.542 3.776 3.776 0 012.65 2.65zm-17.2 11.575l7.735-4.435-7.735-4.381z"/></svg>