<svg xmlns="http://www.w3.org/2000/svg" width="24.231" height="24.231" viewBox="0 0 24.231 24.231"><path d="M223.141,1461.6a2.874,2.874,0,1,1,2.055.865A2.808,2.808,0,0,1,223.141,1461.6Zm-.486,19.255V1464.68h5.03v16.172Zm18.822,0v-7.9a8.719,8.719,0,0,0-.325-2.812,2.276,2.276,0,0,0-2.325-1.46,2.533,2.533,0,0,0-2.434,1.3,6.037,6.037,0,0,0-.541,2.867v8h-4.976V1464.68h4.814v2.217h.054a4.329,4.329,0,0,1,1.731-1.785,5.333,5.333,0,0,1,3.029-.865q3.516,0,4.922,2.218a10.934,10.934,0,0,1,1.082,5.517v8.87Z" transform="translate(-222.276 -1456.621)"/></svg>