<svg xmlns="http://www.w3.org/2000/svg" width="29.532" height="20.769" viewBox="0 0 29.532 20.769"><path d="M370.267,1407.116a24.4,24.4,0,0,1,.541,4.435l.055,2.7-.055,2.7a24.7,24.7,0,0,1-.541,4.489,3.838,3.838,0,0,1-2.65,2.6,38.522,38.522,0,0,1-6.6.541l-4.922.054-4.922-.054a38.524,38.524,0,0,1-6.6-.541,3.842,3.842,0,0,1-2.651-2.6,24.774,24.774,0,0,1-.541-4.489l-.054-2.7q0-1.19.054-2.7a24.472,24.472,0,0,1,.541-4.435,3.779,3.779,0,0,1,2.651-2.65,38.4,38.4,0,0,1,6.6-.542l4.922-.054,4.922.054a38.4,38.4,0,0,1,6.6.542,3.776,3.776,0,0,1,2.65,2.65Zm-17.2,11.575,7.735-4.435-7.735-4.381Z" transform="translate(-341.331 -1403.871)"/></svg>