<svg xmlns="http://www.w3.org/2000/svg" width="129.729" height="138.232" viewBox="0 0 129.729 138.232"><defs><style>.a{fill:#ff8562;}</style></defs><path class="a" d="M767.188,1495.25c-2.616,0-5.242.143-7.847-.032a9.3,9.3,0,0,1-8.592-7.664,24.447,24.447,0,0,0-7.987-13.609,37.319,37.319,0,0,1,26.726-65.446,37.034,37.034,0,0,1,34.556,31.593c1.926,13.288-2.3,24.568-12.2,33.65a26.031,26.031,0,0,0-8.242,13.971,9.416,9.416,0,0,1-9.381,7.581c-2.343.029-4.686.005-7.028.005Zm.018-5.47v-.008c2.343,0,4.685.012,7.027,0a3.96,3.96,0,0,0,3.99-3.257,30.178,30.178,0,0,1,8.056-15.075c1.706-1.777,3.614-3.374,5.209-5.24a31.751,31.751,0,0,0-41.73-47c-9.957,6.615-14.756,16.18-14.287,28.154a30.457,30.457,0,0,0,10.777,22.3,30.678,30.678,0,0,1,9.951,16.875,3.932,3.932,0,0,0,4.054,3.259C762.571,1489.785,764.889,1489.78,767.206,1489.78Zm.026,7.948c-3.539,0-7.077-.005-10.615,0a2.761,2.761,0,1,0-.043,5.516c7.1.009,14.2.017,21.306-.031a3.423,3.423,0,0,0,1.838-.674,2.573,2.573,0,0,0,.8-3.03,2.679,2.679,0,0,0-2.593-1.785c-3.563-.012-7.127,0-10.69,0Zm-.07,13.468c3.539,0,7.077.007,10.616,0a2.762,2.762,0,1,0,.02-5.518q-10.541-.013-21.082-.014a2.773,2.773,0,1,0-.02,5.527c3.489.008,6.978,0,10.466,0Zm61.937-62.688a2.769,2.769,0,1,0,0-5.526q-6.686-.008-13.371,0a2.77,2.77,0,1,0,0,5.526c2.191.008,4.382,0,6.573,0C824.568,1448.511,826.834,1448.52,829.1,1448.508Zm-59.165-57.952c0-2.34.036-4.68-.015-7.018a2.535,2.535,0,0,0-1.82-2.471c-2.022-.647-3.681.7-3.682,3q0,6.385,0,12.77a6.562,6.562,0,0,0,.069,1.115,2.745,2.745,0,0,0,3.294,2.161,2.714,2.714,0,0,0,2.16-2.911c.021-2.215.005-4.431.005-6.646ZM718.688,1448.5a2.761,2.761,0,1,0-.016-5.512q-6.682-.008-13.364,0a2.766,2.766,0,1,0,.016,5.513c2.215.007,4.429,0,6.645,0C714.209,1448.505,716.449,1448.512,718.688,1448.5Zm16.117-39.043q-4.719-4.683-9.406-9.4a2.78,2.78,0,0,0-4-.24,2.749,2.749,0,0,0,.016,4.053c1.281,1.322,2.595,2.612,3.9,3.913,1.937,1.934,3.864,3.877,5.821,5.789a2.564,2.564,0,0,0,2.976.517,2.64,2.64,0,0,0,1.668-2.439A3.046,3.046,0,0,0,734.806,1409.46Zm79.04-7.613a2.681,2.681,0,0,0-1.662-2.523,2.639,2.639,0,0,0-3.031.568q-4.872,4.842-9.721,9.707a2.752,2.752,0,1,0,3.832,3.95q4.917-4.849,9.759-9.773a7.734,7.734,0,0,0,1.007-1.832Zm-.9,85.207q-4.749-4.855-9.6-9.608a3.248,3.248,0,0,0-1.4-.782,2.639,2.639,0,0,0-3.019,1.372,2.725,2.725,0,0,0,.533,3.291q3.893,3.92,7.81,7.816c.651.651,1.281,1.324,1.963,1.941a2.652,2.652,0,0,0,3.056.456c1.053-.477,1.511-1.385,1.6-2.885A6.507,6.507,0,0,0,812.944,1487.054Zm-87.485,3.747q4.688-4.712,9.389-9.41a2.708,2.708,0,0,0,.253-3.815,2.592,2.592,0,0,0-4.056-.051c-1.009.986-2.01,1.98-3.017,2.968-1.166,1.145-2.344,2.278-3.5,3.433-1.05,1.05-2.057,2.144-3.12,3.18a2.825,2.825,0,0,0-.707,2.923,2.778,2.778,0,0,0,2.684,1.786A2.825,2.825,0,0,0,725.459,1490.8Zm41.687,28.336h4.106l.224,0a2.756,2.756,0,1,0,.014-5.512q-4.293-.04-8.586,0a2.755,2.755,0,1,0,.061,5.509c1.393.012,2.787,0,4.181,0Zm26.009-83.468a28.231,28.231,0,0,0-4.481-7.59,25.883,25.883,0,0,0-8.892-7.128,2.694,2.694,0,0,0-3.81,2.8,2.825,2.825,0,0,0,1.683,2.292,21.657,21.657,0,0,1,11.23,14.617,39.263,39.263,0,0,1,.615,5.1,2.774,2.774,0,0,0,1.759,2.551,2.649,2.649,0,0,0,2.912-.569,2.92,2.92,0,0,0,.862-2.564A28.394,28.394,0,0,0,793.155,1435.668Zm-23.206-15.045a2.7,2.7,0,0,0-2.732-2.68,2.674,2.674,0,0,0-2.772,2.705,2.709,2.709,0,0,0,2.8,2.767A2.743,2.743,0,0,0,769.95,1420.623Z" transform="translate(-702.326 -1380.905)"/></svg>