<svg xmlns="http://www.w3.org/2000/svg" width="211.636" height="274.044" viewBox="0 0 211.636 274.044"><defs><style>.a{fill:#fff;stroke:#000;stroke-width:3px;}</style></defs><path class="a" d="M1853.038,775.8a37.261,37.261,0,0,0,1.164-4.723c3.46-19.584-9.171-38.186-28.211-41.55a34.063,34.063,0,0,0-11.569-.049c.319-15.337-10.947-29.129-26.994-31.963a32.672,32.672,0,0,0-30.71,10.909c-27.393-3.588-53.338,8.5-67.588,29.424a10.374,10.374,0,0,0-4.109-1.693,9.493,9.493,0,1,0-4.086,18.539,64.777,64.777,0,0,0,4.01,49.359,43.351,43.351,0,0,0-4,54.614,55.257,55.257,0,0,0-8.506,21.174c-5.526,31.28,16.455,61.312,49.095,67.078a62.4,62.4,0,0,0,18.485.494,40,40,0,0,0,28.184,19.939c19.735,3.486,38.524-7.774,44.289-25.647,23.25-4.408,42.307-22.17,46.544-46.157a55.69,55.69,0,0,0-1.7-26.368,55.985,55.985,0,0,0,21.924-35.249C1883.359,810.732,1872.322,788.233,1853.038,775.8Z" transform="translate(-1670.008 -695.481)"/></svg>