<svg xmlns="http://www.w3.org/2000/svg" width="226.727" height="282.278" viewBox="0 0 226.727 282.278"><defs><style>.a{fill:#fff;}</style></defs><g transform="matrix(0.985, 0.174, -0.174, 0.985, 14.503, -21.944)"><ellipse class="a" cx="60" cy="57.5" rx="60" ry="57.5" transform="translate(107.635 68.832)"/><ellipse class="a" cx="60" cy="57.5" rx="60" ry="57.5" transform="translate(32 150)"/><ellipse class="a" cx="46" cy="44.5" rx="46" ry="44.5" transform="translate(24 110)"/><ellipse class="a" cx="70.5" cy="67.5" rx="70.5" ry="67.5" transform="translate(18 24)"/><ellipse class="a" cx="39.5" cy="38" rx="39.5" ry="38" transform="translate(102 201)"/><ellipse class="a" cx="35" cy="36" rx="35" ry="36" transform="translate(122.033 32.81)"/><ellipse class="a" cx="32.5" cy="31.5" rx="32.5" ry="31.5" transform="translate(81 8)"/><ellipse class="a" cx="10" cy="9.5" rx="10" ry="9.5" transform="translate(9.399 63.852)"/><ellipse class="a" cx="59.5" cy="57.5" rx="59.5" ry="57.5" transform="translate(99.438 133.012)"/></g></svg>