<svg xmlns="http://www.w3.org/2000/svg" width="1047" height="482" viewBox="0 0 1047 482"><defs><style>.a{fill:#ff8562;}.b{fill:#f8c064;}.c{fill:#f6d365;}.d{fill:#ff8662;}</style></defs><g transform="translate(-427 -1827)"><g transform="translate(-66 -47)"><circle class="a" cx="19.5" cy="19.5" r="19.5" transform="translate(1501 1952)"/><circle class="b" cx="17" cy="17" r="17" transform="translate(1308 2281)"/><circle class="b" cx="10" cy="10" r="10" transform="translate(1385 1960)"/><circle class="a" cx="14.5" cy="14.5" r="14.5" transform="translate(1267 2267)"/><circle class="c" cx="5" cy="5" r="5" transform="translate(1466 2155)"/><circle class="b" cx="5" cy="5" r="5" transform="translate(1516 2178)"/><circle class="b" cx="3" cy="3" r="3" transform="translate(1379 2243)"/><circle class="b" cx="3" cy="3" r="3" transform="translate(1527 1942)"/><circle class="b" cx="3" cy="3" r="3" transform="translate(1259 1932)"/><circle class="c" cx="3" cy="3" r="3" transform="translate(1487 2160)"/><circle class="c" cx="3" cy="3" r="3" transform="translate(888 1938)"/><circle class="b" cx="7.5" cy="7.5" r="7.5" transform="translate(1181 1991)"/><circle class="a" cx="3" cy="3" r="3" transform="translate(643 2243)"/><circle class="a" cx="3" cy="3" r="3" transform="translate(891 2108)"/><circle class="a" cx="3" cy="3" r="3" transform="translate(1051 2236)"/><circle class="a" cx="3" cy="3" r="3" transform="translate(1473 2337)"/><circle class="a" cx="3" cy="3" r="3" transform="translate(829 1941)"/><circle class="a" cx="3" cy="3" r="3" transform="translate(875 1912)"/><circle class="a" cx="3" cy="3" r="3" transform="translate(548 2209)"/><circle class="b" cx="3" cy="3" r="3" transform="translate(760 2047)"/><circle class="c" cx="3" cy="3" r="3" transform="translate(1142 2093)"/><circle class="c" cx="11" cy="11" r="11" transform="matrix(-0.848, 0.53, -0.53, -0.848, 534.378, 1974.318)"/><circle class="a" cx="6" cy="6" r="6" transform="translate(687 1965)"/><circle class="b" cx="20.5" cy="20.5" r="20.5" transform="translate(493 1915)"/><circle class="c" cx="5.5" cy="5.5" r="5.5" transform="translate(1051 2256)"/><circle class="c" cx="5.5" cy="5.5" r="5.5" transform="translate(1034 2215)"/><circle class="c" cx="2.5" cy="2.5" r="2.5" transform="translate(1337 1874)"/><circle class="b" cx="15" cy="15" r="15" transform="translate(643 2274)"/><circle class="b" cx="5.5" cy="5.5" r="5.5" transform="translate(807 2154)"/><circle class="b" cx="5.5" cy="5.5" r="5.5" transform="translate(1286 2173)"/><circle class="c" cx="5.5" cy="5.5" r="5.5" transform="translate(891 2345)"/><circle class="a" cx="5.5" cy="5.5" r="5.5" transform="translate(534 2225)"/><circle class="b" cx="5.5" cy="5.5" r="5.5" transform="translate(595 2155)"/><circle class="c" cx="6" cy="6" r="6" transform="translate(1422 2066)"/></g><path class="c" d="M44.526,19.744C48.408,40.3,36.055,62.011,16.382,69.2a42.262,42.262,0,0,1-4.523,1.166c-.9-2.332-1.76-4.45-2.5-6.6a1.5,1.5,0,0,1,.576-1.2c3.421-2.562,6.628-5.37,8.833-9.081a39.439,39.439,0,0,0,2.484-5.583,5.806,5.806,0,0,0,.132-1.725c-1.513-.262-2.929-.459-4.326-.755-9.919-2.184-16-9.524-16.4-19.655a31.436,31.436,0,0,1,1.727-12.4C5.543,4.932,12.863.121,22.255.285,33.966.482,42.256,7.74,44.526,19.744ZM97.44,18.677C95.1,7.215,86.765.466,75.416.286c-9.343-.148-16.63,4.63-19.788,13.005a30.485,30.485,0,0,0-1.694,13.186c.461,5.846,2.517,10.936,7.222,14.713A23.3,23.3,0,0,0,71.5,45.673c.986.2,2.006.311,3.29.509C73.524,54.064,68.1,58.727,62.306,63.211c.888,2.332,1.792,4.646,2.764,7.192,1.71-.46,3.29-.772,4.8-1.33A41.184,41.184,0,0,0,87.225,56.839C96.716,45.771,100.351,33.012,97.44,18.677Z" transform="translate(858.377 1859.968)"/><path class="d" d="M83.056,5.591a5.656,5.656,0,0,1-4.492,5.549,27.079,27.079,0,0,0-11.627,5.285Q59.009,21.975,59.009,29.9c0,5.021,4.492,4.757,8.192,4.228A15.567,15.567,0,0,1,82,57.913C75.393,68.748,58.745,68.219,51.346,58.97c-10.834-13.213-7.135-37.524,5.021-48.887A39.254,39.254,0,0,1,76.45.042a5.714,5.714,0,0,1,6.606,5.549Zm-45.187,0a5.656,5.656,0,0,1-4.492,5.549,27.079,27.079,0,0,0-11.627,5.285Q13.822,21.975,13.822,29.9c0,5.021,4.492,4.757,8.192,4.228a15.567,15.567,0,0,1,14.8,23.783C30.205,68.748,13.557,68.219,6.158,58.97-4.412,45.758-.712,21.446,11.443,10.348A39.676,39.676,0,0,1,31.527.042,5.5,5.5,0,0,1,37.869,5.591Z" transform="translate(963.091 1897.026)"/></g></svg>