<svg xmlns="http://www.w3.org/2000/svg" width="1047" height="482"><defs><style>.a{fill:#ff8562}.b{fill:#f8c064}.c{fill:#f6d365}</style></defs><g transform="translate(-493 -1874)"><circle class="a" cx="19.5" cy="19.5" r="19.5" transform="translate(1501 1952)"/><circle class="b" cx="17" cy="17" r="17" transform="translate(1308 2281)"/><circle class="b" cx="10" cy="10" r="10" transform="translate(1385 1960)"/><circle class="a" cx="14.5" cy="14.5" r="14.5" transform="translate(1267 2267)"/><circle class="c" cx="5" cy="5" r="5" transform="translate(1466 2155)"/><circle class="b" cx="5" cy="5" r="5" transform="translate(1516 2178)"/><circle class="b" cx="3" cy="3" r="3" transform="translate(1379 2243)"/><circle class="b" cx="3" cy="3" r="3" transform="translate(1527 1942)"/><circle class="b" cx="3" cy="3" r="3" transform="translate(1259 1932)"/><circle class="c" cx="3" cy="3" r="3" transform="translate(1487 2160)"/><circle class="c" cx="3" cy="3" r="3" transform="translate(888 1938)"/><circle class="b" cx="7.5" cy="7.5" r="7.5" transform="translate(1181 1991)"/><circle class="a" cx="3" cy="3" r="3" transform="translate(643 2243)"/><circle class="a" cx="3" cy="3" r="3" transform="translate(891 2108)"/><circle class="a" cx="3" cy="3" r="3" transform="translate(1051 2236)"/><circle class="a" cx="3" cy="3" r="3" transform="translate(1473 2337)"/><circle class="a" cx="3" cy="3" r="3" transform="translate(829 1941)"/><circle class="a" cx="3" cy="3" r="3" transform="translate(875 1912)"/><circle class="a" cx="3" cy="3" r="3" transform="translate(548 2209)"/><circle class="b" cx="3" cy="3" r="3" transform="translate(760 2047)"/><circle class="c" cx="3" cy="3" r="3" transform="translate(1142 2093)"/><circle class="c" cx="11" cy="11" r="11" transform="rotate(148 -15.925 1063.787)"/><circle class="a" cx="6" cy="6" r="6" transform="translate(687 1965)"/><circle class="b" cx="20.5" cy="20.5" r="20.5" transform="translate(493 1915)"/><circle class="c" cx="5.5" cy="5.5" r="5.5" transform="translate(1051 2256)"/><circle class="c" cx="5.5" cy="5.5" r="5.5" transform="translate(1034 2215)"/><circle class="c" cx="2.5" cy="2.5" r="2.5" transform="translate(1337 1874)"/><circle class="b" cx="15" cy="15" r="15" transform="translate(643 2274)"/><circle class="b" cx="5.5" cy="5.5" r="5.5" transform="translate(807 2154)"/><circle class="b" cx="5.5" cy="5.5" r="5.5" transform="translate(1286 2173)"/><circle class="c" cx="5.5" cy="5.5" r="5.5" transform="translate(891 2345)"/><circle class="a" cx="5.5" cy="5.5" r="5.5" transform="translate(534 2225)"/><circle class="b" cx="5.5" cy="5.5" r="5.5" transform="translate(595 2155)"/><circle class="c" cx="6" cy="6" r="6" transform="translate(1422 2066)"/></g><path class="c" d="M475.903 52.712c3.882 20.556-8.471 42.267-28.144 49.456a42.262 42.262 0 01-4.523 1.166c-.9-2.332-1.76-4.45-2.5-6.6a1.5 1.5 0 01.576-1.2c3.421-2.562 6.628-5.37 8.833-9.081a39.439 39.439 0 002.484-5.583 5.806 5.806 0 00.132-1.725c-1.513-.262-2.929-.459-4.326-.755-9.919-2.184-16-9.524-16.4-19.655a31.436 31.436 0 011.727-12.4c3.158-8.435 10.478-13.246 19.87-13.082 11.711.197 20.001 7.455 22.271 19.459zm52.914-1.067c-2.34-11.462-10.675-18.211-22.024-18.391-9.343-.148-16.63 4.63-19.788 13.005a30.485 30.485 0 00-1.694 13.186c.461 5.846 2.517 10.936 7.222 14.713a23.3 23.3 0 0010.344 4.483c.986.2 2.006.311 3.29.509-1.266 7.882-6.69 12.545-12.484 17.029.888 2.332 1.792 4.646 2.764 7.192 1.71-.46 3.29-.772 4.8-1.33a41.184 41.184 0 0017.355-12.234c9.491-11.068 13.126-23.827 10.215-38.162z"/><path d="M619.147 75.617a5.656 5.656 0 01-4.492 5.549 27.079 27.079 0 00-11.627 5.285q-7.928 5.55-7.928 13.475c0 5.021 4.492 4.757 8.192 4.228a15.567 15.567 0 0114.799 23.785c-6.607 10.835-23.255 10.306-30.654 1.057-10.834-13.213-7.135-37.524 5.021-48.887a39.254 39.254 0 0120.083-10.041 5.714 5.714 0 016.606 5.549zm-45.187 0a5.656 5.656 0 01-4.492 5.549 27.079 27.079 0 00-11.627 5.285q-7.928 5.55-7.928 13.475c0 5.021 4.492 4.757 8.192 4.228a15.567 15.567 0 0114.8 23.783c-6.609 10.837-23.257 10.308-30.656 1.059-10.57-13.212-6.87-37.524 5.285-48.622a39.676 39.676 0 0120.084-10.306 5.5 5.5 0 016.342 5.549z" fill="#ff8662"/></svg>