<svg xmlns="http://www.w3.org/2000/svg" viewBox="0 0 272 272"><defs><style>.cls-1{fill:#b5b5b5;}.cls-2{opacity:0.2;}.cls-3{fill:#fff;}.cls-4{fill:none;}</style></defs><title>Element 5</title><g id="Ebene_2" data-name="Ebene 2"><g id="Ebene_1-2" data-name="Ebene 1"><rect id="Rechteck_4" data-name="Rechteck 4" class="cls-1" width="272" height="272"/><g class="cls-2"><path class="cls-3" d="M155.47,263.79C136.86,250.32,111,254.1,96.53,272H164A42.36,42.36,0,0,0,155.47,263.79Z"/><path class="cls-3" d="M16.42,229.28a54.16,54.16,0,0,0,71.85-7.46c1.22,1,2.48,2,3.78,3a74.68,74.68,0,0,0,63.17,11.67,27.91,27.91,0,1,0,44-26.43,29.44,29.44,0,0,0-2.84-1.8,1.83,1.83,0,0,1,.13-.16A74.81,74.81,0,0,0,75.33,120.31a75.6,75.6,0,0,0-8.16,14.4A54.16,54.16,0,0,0,4.32,153.66a54.77,54.77,0,0,0-4.32,7v49.45A54,54,0,0,0,16.42,229.28Z"/><circle class="cls-3" cx="113.81" cy="50.98" r="19.54" transform="translate(42.84 153.53) rotate(-79.45)"/></g><rect class="cls-4" width="272" height="272"/><path d="M233,170.57c0-2.57-.72-3.6-3.42-3.59q-32.67.12-65.33,0c-2.47,0-3.28.82-3.24,3.31.14,7.85-.06,15.71.1,23.56a43.21,43.21,0,0,0,1.17,10.55c3.77,13.41,12.46,22.06,26,25.8,1.51.42,3.62.19,3.59,3-.15,12.94-.18,25.87-.23,38.81H202.2c0-.14,0-.26,0-.41-.14-12,.06-24-.14-36-.05-3.31.87-4.7,4.2-5.53a35.07,35.07,0,0,0,26.65-33.74C233,187.7,232.88,179.13,233,170.57Z"/><path d="M213.62,159.21h10.12a28.88,28.88,0,0,0,.36-3.24q0-16.42,0-32.84a18.06,18.06,0,0,0-.39-3.18c-.46-2.61-2.11-3.84-4.71-3.94-3.7-.15-5.69,2-5.7,6.48,0,11.3,0,22.61,0,33.91A25,25,0,0,0,213.62,159.21Z"/><path d="M170.6,159.15h10.08c0-12.8,0-25.15,0-37.51,0-3.8-1.85-5.65-5.3-5.63s-5,1.77-5,5.82q0,17,0,33.89C170.36,156.86,170.52,158,170.6,159.15Z"/></g></g></svg>