<svg xmlns="http://www.w3.org/2000/svg" viewBox="0 0 354 354"><g data-name="Ebene 2"><g data-name="Ebene 1"><circle data-name="Ellipse 50" cx="177" cy="177" r="177" fill="#f6d365"/><path d="M177 244.49c-3.91 0-7.83.21-11.71-.05A13.86 13.86 0 01152.47 233a36.5 36.5 0 00-11.92-20.31C128.64 202.17 122.1 189 121.4 173.1c-.71-16.5 4.9-30.72 16.66-42.25s26-16.76 42.37-15.81A55.26 55.26 0 01232 162.18c2.87 19.83-3.44 36.66-18.21 50.22a38.84 38.84 0 00-12.3 20.84 14 14 0 01-14 11.31h-10.48zm0-8.16h10.49a5.9 5.9 0 006-4.86 45 45 0 0112-22.49c2.55-2.66 5.39-5 7.78-7.82A47.38 47.38 0 00151 131c-14.86 9.87-22 24.15-21.32 42 .52 13.32 6.1 24.44 16.08 33.27a45.83 45.83 0 0114.85 25.18 5.87 5.87 0 006.05 4.87zm0 11.86h-15.78a4.12 4.12 0 10-.06 8.23h31.79a5.19 5.19 0 002.74-1 3.83 3.83 0 001.19-4.52 4 4 0 00-3.87-2.66h-15.95zm-.1 20.1h15.84a4.12 4.12 0 100-8.23h-31.46c-2.71 0-4.5 1.67-4.5 4.17s1.83 4.07 4.47 4.07H177zm92.42-93.55a4.13 4.13 0 100-8.24h-20a4.13 4.13 0 100 8.24h9.81c3.27 0 6.87.02 10.25 0zm-88.23-86.47c0-3.49.06-7 0-10.47a3.78 3.78 0 00-2.71-3.69c-3-1-5.5 1-5.5 4.48v19a10.33 10.33 0 00.1 1.67 4.1 4.1 0 004.92 3.22c2.05-.48 3.2-2 3.22-4.34v-9.92zm-76.46 86.47a4.12 4.12 0 100-8.23H84.66a4.13 4.13 0 100 8.23h19.95zm24-58.26l-14-14a4.15 4.15 0 00-6-.36 4.1 4.1 0 000 6.05c1.91 2 3.87 3.89 5.81 5.83 2.89 2.89 5.77 5.79 8.69 8.64a3.82 3.82 0 004.44.77 3.94 3.94 0 002.49-3.64 4.51 4.51 0 00-1.39-3.29zm118-11.36a4 4 0 00-2.48-3.77 4 4 0 00-4.53.85q-7.26 7.23-14.5 14.48a4.11 4.11 0 105.72 5.9q7.33-7.24 14.56-14.58a11.65 11.65 0 001.5-2.74zm-1.35 127.14c-4.72-4.83-9.51-9.6-14.32-14.34a4.84 4.84 0 00-2.1-1.16 3.93 3.93 0 00-4.5 2 4.08 4.08 0 00.79 4.92l11.66 11.66c1 1 1.91 2 2.93 2.89a4 4 0 004.56.69c1.57-.72 2.25-2.07 2.38-4.31a9.92 9.92 0 00-1.41-2.35zm-130.54 5.59l14-14a4 4 0 00.38-5.69c-2-2-4.09-2-6.06-.08l-4.5 4.43c-1.74 1.71-3.5 3.4-5.22 5.12-1.57 1.57-3.07 3.2-4.66 4.75a4.22 4.22 0 00-1.05 4.36 4.12 4.12 0 004 2.66 4.19 4.19 0 003.1-1.55zm62.2 42.28h6.47a4.12 4.12 0 100-8.23q-6.42-.06-12.82 0a4.11 4.11 0 10.09 8.22h6.24zm38.81-124.55a42 42 0 00-6.68-11.32 38.68 38.68 0 00-13.27-10.64 4 4 0 00-5.69 4.18 4.23 4.23 0 002.51 3.42c8.77 4.81 14.5 12 16.76 21.81a58.14 58.14 0 01.92 7.61 4.13 4.13 0 002.62 3.8 3.94 3.94 0 004.35-.85 4.31 4.31 0 001.28-3.82 42.34 42.34 0 00-2.81-14.19zm-34.62-22.44a4.11 4.11 0 10-4.05 4.16 4.1 4.1 0 004.04-4.16z" fill="#fff"/></g></g></svg>