<svg xmlns="http://www.w3.org/2000/svg" width="27.692" height="22.5"><path d="M24.88 6.328a16.033 16.033 0 01-1.893 7.518 15.442 15.442 0 01-5.462 6.112 16.37 16.37 0 01-17.525 0q.6.055 1.352.055a11.261 11.261 0 007.085-2.434 5.283 5.283 0 01-3.326-1.109 5.652 5.652 0 01-1.975-2.785q.541.054 1.028.054a7.238 7.238 0 001.515-.161 5.727 5.727 0 01-3.245-2 5.444 5.444 0 01-1.3-3.57V7.9a5.35 5.35 0 002.542.757 6.294 6.294 0 01-1.839-2.055 5.508 5.508 0 01.108-5.571A15.885 15.885 0 0013.627 6.98a7.855 7.855 0 01-.108-1.3 5.631 5.631 0 01.758-2.839A5.56 5.56 0 0116.332.758a5.485 5.485 0 012.812-.757 5.418 5.418 0 012.3.487 6.428 6.428 0 011.866 1.3A11.559 11.559 0 0026.934.436a5.641 5.641 0 01-2.488 3.137 12.19 12.19 0 003.245-.92 12.5 12.5 0 01-2.866 2.975 3.215 3.215 0 01.055.7z"/></svg>