<svg xmlns="http://www.w3.org/2000/svg" width="24.231" height="24.23"><path d="M24.177 7.085q.054 1.515.054 5.03t-.081 5.057a10.2 10.2 0 01-.46 2.678 6.33 6.33 0 01-3.84 3.84 10.223 10.223 0 01-2.677.46q-1.542.081-5.058.081t-5.057-.081a8.846 8.846 0 01-2.677-.514 5.759 5.759 0 01-2.353-1.434A6.3 6.3 0 01.54 19.85a10.2 10.2 0 01-.459-2.678Q0 15.63-.001 12.115t.082-5.057A10.2 10.2 0 01.54 4.38 6.335 6.335 0 014.381.54 10.184 10.184 0 017.058.081Q8.6-.001 12.115-.001t5.058.082A10.184 10.184 0 0119.85.54a6.331 6.331 0 013.84 3.84 11.025 11.025 0 01.487 2.705zm-2.6 12.169a11.4 11.4 0 00.433-2.921q.053-1.19.054-3.353v-1.731q0-2.218-.054-3.353a10.863 10.863 0 00-.433-2.921 3.9 3.9 0 00-2.325-2.326 10.877 10.877 0 00-2.921-.432q-1.191-.054-3.354-.054h-1.731q-2.163 0-3.353.054a11.415 11.415 0 00-2.921.432 3.9 3.9 0 00-2.325 2.326 10.831 10.831 0 00-.433 2.921q-.054 1.19-.054 3.353v1.731q0 2.163.054 3.353a11.366 11.366 0 00.433 2.921 4.1 4.1 0 002.325 2.326 11.376 11.376 0 002.921.432q1.19.054 3.353.055h1.731q2.218 0 3.354-.055a10.841 10.841 0 002.921-.432 4.1 4.1 0 002.329-2.325zM12.112 5.895a6.05 6.05 0 013.11.838 6.234 6.234 0 012.272 2.272 6.187 6.187 0 010 6.22 6.227 6.227 0 01-2.272 2.272 6.187 6.187 0 01-6.22 0 6.239 6.239 0 01-2.272-2.272 6.187 6.187 0 010-6.22 6.245 6.245 0 012.272-2.272 6.051 6.051 0 013.113-.838zm0 10.277a4.063 4.063 0 10-2.866-1.19 3.909 3.909 0 002.869 1.19zm7.951-10.547a1.453 1.453 0 10-1.46 1.46 1.318 1.318 0 001-.432 1.689 1.689 0 00.463-1.028z"/></svg>