<svg xmlns="http://www.w3.org/2000/svg" width="129.729" height="138.232"><path d="M64.862 114.345c-2.616 0-5.242.143-7.847-.032a9.3 9.3 0 01-8.592-7.664 24.447 24.447 0 00-7.987-13.609 37.319 37.319 0 0126.726-65.446 37.034 37.034 0 0134.556 31.593c1.926 13.288-2.3 24.568-12.2 33.65a26.031 26.031 0 00-8.242 13.971 9.416 9.416 0 01-9.381 7.581c-2.343.029-4.686.005-7.028.005zm.018-5.47v-.008c2.343 0 4.685.012 7.027 0a3.96 3.96 0 003.99-3.257 30.178 30.178 0 018.056-15.075c1.706-1.777 3.614-3.374 5.209-5.24a31.751 31.751 0 00-41.73-47c-9.957 6.615-14.756 16.18-14.287 28.154a30.457 30.457 0 0010.777 22.3 30.678 30.678 0 019.951 16.875 3.932 3.932 0 004.054 3.259c2.318-.003 4.636-.008 6.953-.008zm.026 7.948c-3.539 0-7.077-.005-10.615 0a2.761 2.761 0 10-.043 5.516c7.1.009 14.2.017 21.306-.031a3.423 3.423 0 001.838-.674 2.573 2.573 0 00.8-3.03 2.679 2.679 0 00-2.593-1.785c-3.563-.012-7.127 0-10.69 0zm-.07 13.468c3.539 0 7.077.007 10.616 0a2.762 2.762 0 10.02-5.518q-10.541-.013-21.082-.014a2.773 2.773 0 10-.02 5.527c3.489.008 6.978 0 10.466 0zm61.937-62.688a2.769 2.769 0 100-5.526q-6.686-.008-13.371 0a2.77 2.77 0 100 5.526c2.191.008 4.382 0 6.573 0 2.267.003 4.533.012 6.799 0zM67.608 9.651c0-2.34.036-4.68-.015-7.018a2.535 2.535 0 00-1.82-2.471c-2.022-.647-3.681.7-3.682 3v12.77a6.562 6.562 0 00.069 1.115 2.745 2.745 0 003.294 2.161 2.714 2.714 0 002.16-2.911c.021-2.215.005-4.431.005-6.646zM16.362 67.595a2.761 2.761 0 10-.016-5.512q-6.682-.008-13.364 0a2.766 2.766 0 10.016 5.513c2.215.007 4.429 0 6.645 0 2.24.004 4.48.011 6.719-.001zm16.117-39.043q-4.719-4.683-9.406-9.4a2.78 2.78 0 00-4-.24 2.749 2.749 0 00.016 4.053c1.281 1.322 2.595 2.612 3.9 3.913 1.937 1.934 3.864 3.877 5.821 5.789a2.564 2.564 0 002.976.517 2.64 2.64 0 001.668-2.439 3.046 3.046 0 00-.974-2.19zm79.04-7.613a2.681 2.681 0 00-1.662-2.523 2.639 2.639 0 00-3.031.568q-4.872 4.842-9.721 9.707a2.752 2.752 0 103.832 3.95q4.917-4.849 9.759-9.773a7.734 7.734 0 001.007-1.832zm-.9 85.207q-4.749-4.855-9.6-9.608a3.248 3.248 0 00-1.4-.782 2.639 2.639 0 00-3.019 1.372 2.725 2.725 0 00.533 3.291q3.893 3.92 7.81 7.816c.651.651 1.281 1.324 1.963 1.941a2.652 2.652 0 003.056.456c1.053-.477 1.511-1.385 1.6-2.885a6.507 6.507 0 00-.944-1.598zm-87.485 3.747q4.688-4.712 9.389-9.41a2.708 2.708 0 00.253-3.815 2.592 2.592 0 00-4.056-.051c-1.009.986-2.01 1.98-3.017 2.968-1.166 1.145-2.344 2.278-3.5 3.433-1.05 1.05-2.057 2.144-3.12 3.18a2.825 2.825 0 00-.707 2.923 2.778 2.778 0 002.684 1.786 2.825 2.825 0 002.073-1.012zm41.687 28.336h4.33a2.756 2.756 0 10.014-5.512q-4.293-.04-8.586 0a2.755 2.755 0 10.061 5.509c1.393.012 2.787 0 4.181 0zM90.83 54.761a28.231 28.231 0 00-4.481-7.59 25.883 25.883 0 00-8.892-7.128 2.694 2.694 0 00-3.81 2.8 2.825 2.825 0 001.683 2.292 21.657 21.657 0 0111.23 14.617 39.263 39.263 0 01.615 5.1 2.774 2.774 0 001.759 2.551 2.649 2.649 0 002.912-.569 2.92 2.92 0 00.862-2.564 28.394 28.394 0 00-1.879-9.507zM67.624 39.716a2.7 2.7 0 00-2.732-2.68 2.674 2.674 0 00-2.772 2.705 2.709 2.709 0 002.8 2.767 2.743 2.743 0 002.704-2.79z" fill="#ff8562"/></svg>